<?xml version="1.0" encoding="utf-8"?>
<!-- Generator: Adobe Illustrator 16.0.0, SVG Export Plug-In . SVG Version: 6.00 Build 0)  -->
<!DOCTYPE svg PUBLIC "-//W3C//DTD SVG 1.1//EN" "http://www.w3.org/Graphics/SVG/1.1/DTD/svg11.dtd">
<svg version="1.1" id="Layer_1" xmlns="http://www.w3.org/2000/svg" xmlns:xlink="http://www.w3.org/1999/xlink" x="0px" y="0px"
	 width="147px" height="160px" viewBox="0 0 147 160" enable-background="new 0 0 147 160" xml:space="preserve">
<path fill="#dddddd" d="M128.9179688,35.6640625L84.1884766,9.8388672c-6.6142578-3.8193359-14.7626953-3.8193359-21.3769531,0
	L18.0820312,35.6640625c-6.6142578,3.8173828-10.6884766,10.875-10.6884766,18.5117188v51.6503906
	c0,7.6367188,4.0742188,14.6923828,10.6884766,18.5117188l44.7294922,25.8251953
	c6.6142578,3.8173828,14.7626953,3.8173828,21.3769531,0l44.7294922-25.8251953
	c6.6142578-3.8193359,10.6884766-10.875,10.6884766-18.5117188V54.1757812
	C139.6064453,46.5390625,135.5322266,39.4814453,128.9179688,35.6640625z M71.90625,107.8183594
	c0.9335938,0.7734375,2.2705078,0.765625,3.203125-0.0058594c6.7675781-5.5869141,11.6445312-12.90625,14.265625-21.3710938
	c0.3105469-1.0009766-0.4179688-2.0205078-1.4658203-2.0205078H77.1396484c-3.1269531,0-5.9199219-2.2861328-6.2167969-5.3994141
	c-0.3417969-3.5703125,2.4589844-6.5761719,5.9589844-6.5761719h20.1669922c0.9052734,0,1.8154297,0.1601562,2.6347656,0.5488281
	c2.4404297,1.1591797,3.7226562,3.6611328,3.4257812,6.1513672c-2.1367188,17.8671875-11.5185547,32.8779297-26.4169922,42.2675781
	c-0.9746094,0.6152344-2.0839844,0.9238281-3.1923828,0.9238281s-2.2177734-0.3085938-3.1923828-0.9238281
	c-16.7011719-10.5253906-26.6699219-28.5820312-26.6699219-48.2978516v-5.7148438
	c0-10.9580078,8.8837891-19.8408203,19.8417969-19.8408203h33.6376953c3.1269531,0,5.9199219,2.2861328,6.2177734,5.3994141
	c0.3408203,3.5703125-2.4599609,6.5742188-5.9599609,6.5742188H63.4794922c-4.3447266,0-7.8681641,3.5234375-7.8681641,7.8671875
	v5.7148438C55.6113281,86.7060547,61.6103516,99.3017578,71.90625,107.8183594z"/>
</svg>
