<svg width="146" height="43" viewBox="0 0 146 43" fill="none" xmlns="http://www.w3.org/2000/svg">
<mask id="mask0_891_680" style="mask-type:alpha" maskUnits="userSpaceOnUse" x="0" y="0" width="39" height="43">
<path fill-rule="evenodd" clip-rule="evenodd" d="M0 0.678223H38.2232V42.9031H0V0.678223Z" fill="white"/>
</mask>
<g mask="url(#mask0_891_680)">
<path fill-rule="evenodd" clip-rule="evenodd" d="M18.6513 29.8334C18.9209 30.0567 19.3076 30.0546 19.5772 29.8312C21.533 28.2158 22.9431 26.1003 23.7013 23.653C23.7909 23.3638 23.5806 23.069 23.2778 23.069H20.1641C19.2599 23.069 18.4525 22.4076 18.3665 21.507C18.2682 20.4749 19.0777 19.6069 20.0896 19.6069H25.9202C26.1819 19.6069 26.445 19.6524 26.6813 19.7644C27.3875 20.0998 27.7582 20.8233 27.6722 21.5432C27.0543 26.7088 24.3417 31.0491 20.0347 33.7631C19.7528 33.9416 19.4326 34.0305 19.1117 34.0305C18.7908 34.0305 18.4706 33.9416 18.1887 33.7631C13.3606 30.7202 10.4782 25.5004 10.4782 19.7999V18.1476C10.4782 14.9797 13.0462 12.4117 16.2148 12.4117H25.9397C26.8439 12.4117 27.6513 13.073 27.7373 13.9729C27.8356 15.0043 27.0261 15.8738 26.0149 15.8738H16.2148C14.9587 15.8738 13.9403 16.8921 13.9403 18.1476V19.7999C13.9403 23.7296 15.6749 27.3709 18.6513 29.8334ZM35.1341 8.97276L22.2016 1.50652C20.2898 0.402124 17.9343 0.402124 16.0219 1.50652L3.09002 8.97276C1.17757 10.0764 -0.000549316 12.1161 -0.000549316 14.3242V29.2566C-0.000549316 31.4647 1.17757 33.5051 3.09002 34.6088L16.0219 42.075C17.9343 43.1794 20.2898 43.1794 22.2016 42.075L35.1341 34.6088C37.0459 33.5051 38.2233 31.4647 38.2233 29.2566V14.3242C38.2233 12.1161 37.0459 10.0764 35.1341 8.97276Z" fill="#553C9A"/>
</g>
<path d="M61.9519 19.1538C61.8279 18.7645 61.661 18.4159 61.4514 18.1079C61.2461 17.7956 61.0001 17.5304 60.7135 17.3122C60.4269 17.0898 60.0997 16.9208 59.7318 16.8053C59.3682 16.6898 58.9682 16.6321 58.5319 16.6321C57.7918 16.6321 57.1245 16.8224 56.5299 17.2032C55.9352 17.5839 55.4647 18.1421 55.1182 18.8779C54.776 19.6094 54.6049 20.5056 54.6049 21.5665C54.6049 22.6316 54.7781 23.5321 55.1246 24.2679C55.4711 25.0037 55.9459 25.5619 56.5491 25.9426C57.1523 26.3234 57.8389 26.5137 58.6089 26.5137C59.3232 26.5137 59.9457 26.3683 60.4761 26.0774C61.0108 25.7865 61.4236 25.3758 61.7145 24.8454C62.0097 24.3107 62.1573 23.6818 62.1573 22.9589L62.6706 23.0551H58.9104V21.4189H64.0758V22.914C64.0758 24.0176 63.8406 24.9759 63.37 25.7886C62.9037 26.5971 62.2578 27.2217 61.4322 27.6623C60.6109 28.1029 59.6697 28.3232 58.6089 28.3232C57.4196 28.3232 56.3759 28.0494 55.4775 27.5019C54.5835 26.9543 53.8862 26.1779 53.3857 25.1726C52.8852 24.1631 52.6349 22.9653 52.6349 21.5793C52.6349 20.5313 52.7804 19.5902 53.0713 18.756C53.3622 17.9218 53.7707 17.2138 54.2969 16.6321C54.8273 16.046 55.4497 15.599 56.1641 15.291C56.8828 14.9787 57.6677 14.8226 58.519 14.8226C59.2291 14.8226 59.89 14.9274 60.5018 15.137C61.1178 15.3466 61.6653 15.6439 62.1444 16.0289C62.6278 16.4139 63.0278 16.8716 63.3443 17.4021C63.6609 17.9282 63.8748 18.5122 63.986 19.1538H61.9519Z" fill="#202020"/>
<path d="M70.6866 28.3425C69.7156 28.3425 68.8793 28.135 68.1777 27.7201C67.4804 27.3008 66.9414 26.7126 66.5607 25.9555C66.1843 25.194 65.996 24.3021 65.996 23.2797C65.996 22.2702 66.1843 21.3804 66.5607 20.6104C66.9414 19.8404 67.4719 19.2394 68.152 18.8073C68.8365 18.3753 69.6364 18.1592 70.5519 18.1592C71.108 18.1592 71.647 18.2512 72.1689 18.4352C72.6907 18.6191 73.1592 18.9078 73.5741 19.3014C73.989 19.695 74.3163 20.2061 74.5559 20.835C74.7954 21.4595 74.9152 22.2188 74.9152 23.1129V23.7931H67.0804V22.3557H73.0351C73.0351 21.851 72.9324 21.4039 72.7271 21.0146C72.5218 20.6211 72.233 20.311 71.8609 20.0842C71.493 19.8575 71.0609 19.7442 70.5647 19.7442C70.0257 19.7442 69.5551 19.8768 69.153 20.142C68.7552 20.4029 68.4472 20.7451 68.229 21.1686C68.0151 21.5879 67.9082 22.0435 67.9082 22.5354V23.6583C67.9082 24.3171 68.0237 24.8775 68.2547 25.3395C68.49 25.8015 68.8172 26.1544 69.2364 26.3982C69.6557 26.6378 70.1455 26.7576 70.7059 26.7576C71.0695 26.7576 71.401 26.7062 71.7004 26.6036C71.9999 26.4966 72.2587 26.3383 72.4769 26.1287C72.695 25.9191 72.8619 25.6603 72.9774 25.3523L74.7933 25.6796C74.6478 26.2143 74.3869 26.6827 74.0104 27.0848C73.6383 27.4826 73.1699 27.7928 72.6052 28.0152C72.0448 28.2334 71.4053 28.3425 70.6866 28.3425Z" fill="#202020"/>
<path d="M81.1955 28.3425C80.2715 28.3425 79.4651 28.1307 78.7764 27.7072C78.0877 27.2837 77.553 26.6913 77.1722 25.9298C76.7915 25.1684 76.6012 24.2786 76.6012 23.2605C76.6012 22.2381 76.7915 21.344 77.1722 20.5783C77.553 19.8126 78.0877 19.218 78.7764 18.7945C79.4651 18.371 80.2715 18.1592 81.1955 18.1592C82.1195 18.1592 82.9258 18.371 83.6146 18.7945C84.3033 19.218 84.838 19.8126 85.2187 20.5783C85.5995 21.344 85.7898 22.2381 85.7898 23.2605C85.7898 24.2786 85.5995 25.1684 85.2187 25.9298C84.838 26.6913 84.3033 27.2837 83.6146 27.7072C82.9258 28.1307 82.1195 28.3425 81.1955 28.3425ZM81.2019 26.7319C81.8008 26.7319 82.297 26.5736 82.6906 26.2571C83.0841 25.9405 83.375 25.5191 83.5632 24.993C83.7557 24.4668 83.852 23.8872 83.852 23.2541C83.852 22.6252 83.7557 22.0477 83.5632 21.5216C83.375 20.9911 83.0841 20.5655 82.6906 20.2446C82.297 19.9238 81.8008 19.7634 81.2019 19.7634C80.5987 19.7634 80.0982 19.9238 79.7004 20.2446C79.3069 20.5655 79.0138 20.9911 78.8213 21.5216C78.6331 22.0477 78.539 22.6252 78.539 23.2541C78.539 23.8872 78.6331 24.4668 78.8213 24.993C79.0138 25.5191 79.3069 25.9405 79.7004 26.2571C80.0982 26.5736 80.5987 26.7319 81.2019 26.7319Z" fill="#202020"/>
<path d="M96.0276 18.2876L92.4535 28.1436H90.4002L86.8197 18.2876H88.8794L91.3755 25.8721H91.4782L93.9678 18.2876H96.0276Z" fill="#202020"/>
<path d="M97.8307 28.1436V18.2876H99.7493V28.1436H97.8307ZM98.7996 16.7668C98.4659 16.7668 98.1793 16.6556 97.9398 16.4332C97.7045 16.2064 97.5868 15.9369 97.5868 15.6247C97.5868 15.3081 97.7045 15.0386 97.9398 14.8162C98.1793 14.5894 98.4659 14.4761 98.7996 14.4761C99.1333 14.4761 99.4177 14.5894 99.653 14.8162C99.8926 15.0386 100.012 15.3081 100.012 15.6247C100.012 15.9369 99.8926 16.2064 99.653 16.4332C99.4177 16.6556 99.1333 16.7668 98.7996 16.7668Z" fill="#202020"/>
<path d="M109.716 20.6938L107.977 21.0018C107.904 20.7794 107.789 20.5676 107.631 20.3666C107.477 20.1655 107.267 20.0008 107.002 19.8725C106.736 19.7441 106.405 19.68 106.007 19.68C105.464 19.68 105.01 19.8019 104.647 20.0457C104.283 20.2853 104.101 20.5954 104.101 20.9761C104.101 21.3055 104.223 21.5708 104.467 21.7718C104.711 21.9729 105.104 22.1376 105.648 22.2659L107.213 22.6252C108.12 22.8348 108.796 23.1578 109.241 23.5941C109.686 24.0305 109.908 24.5973 109.908 25.2946C109.908 25.8849 109.737 26.4111 109.395 26.8731C109.057 27.3308 108.584 27.6901 107.977 27.9511C107.374 28.212 106.674 28.3425 105.879 28.3425C104.775 28.3425 103.875 28.1072 103.177 27.6366C102.48 27.1618 102.052 26.4881 101.894 25.6154L103.748 25.3331C103.864 25.8164 104.101 26.1822 104.461 26.4303C104.82 26.6741 105.288 26.7961 105.866 26.7961C106.495 26.7961 106.997 26.6656 107.374 26.4046C107.75 26.1394 107.939 25.8164 107.939 25.4357C107.939 25.1277 107.823 24.8689 107.592 24.6593C107.365 24.4497 107.017 24.2914 106.546 24.1845L104.878 23.8187C103.958 23.6091 103.278 23.2755 102.837 22.8177C102.401 22.36 102.183 21.7804 102.183 21.0788C102.183 20.497 102.345 19.988 102.67 19.5517C102.996 19.1153 103.445 18.7752 104.018 18.5314C104.591 18.2833 105.248 18.1592 105.988 18.1592C107.053 18.1592 107.891 18.3902 108.503 18.8522C109.115 19.31 109.519 19.9238 109.716 20.6938Z" fill="#202020"/>
<path d="M116.619 18.2876V19.8276H111.235V18.2876H116.619ZM112.679 15.9262H114.597V25.2496C114.597 25.6218 114.653 25.902 114.764 26.0902C114.875 26.2742 115.019 26.4004 115.194 26.4688C115.374 26.533 115.568 26.5651 115.778 26.5651C115.932 26.5651 116.067 26.5544 116.182 26.533C116.298 26.5116 116.388 26.4945 116.452 26.4816L116.798 28.0666C116.687 28.1093 116.529 28.1521 116.323 28.1949C116.118 28.2419 115.861 28.2676 115.553 28.2719C115.049 28.2804 114.578 28.1906 114.142 28.0024C113.705 27.8142 113.353 27.5233 113.083 27.1297C112.814 26.7362 112.679 26.2421 112.679 25.6475V15.9262Z" fill="#202020"/>
<path d="M122.787 28.3425C121.863 28.3425 121.056 28.1307 120.368 27.7072C119.679 27.2837 119.144 26.6913 118.763 25.9298C118.383 25.1684 118.192 24.2786 118.192 23.2605C118.192 22.2381 118.383 21.344 118.763 20.5783C119.144 19.8126 119.679 19.218 120.368 18.7945C121.056 18.371 121.863 18.1592 122.787 18.1592C123.711 18.1592 124.517 18.371 125.206 18.7945C125.894 19.218 126.429 19.8126 126.81 20.5783C127.191 21.344 127.381 22.2381 127.381 23.2605C127.381 24.2786 127.191 25.1684 126.81 25.9298C126.429 26.6913 125.894 27.2837 125.206 27.7072C124.517 28.1307 123.711 28.3425 122.787 28.3425ZM122.793 26.7319C123.392 26.7319 123.888 26.5736 124.282 26.2571C124.675 25.9405 124.966 25.5191 125.154 24.993C125.347 24.4668 125.443 23.8872 125.443 23.2541C125.443 22.6252 125.347 22.0477 125.154 21.5216C124.966 20.9911 124.675 20.5655 124.282 20.2446C123.888 19.9238 123.392 19.7634 122.793 19.7634C122.19 19.7634 121.689 19.9238 121.292 20.2446C120.898 20.5655 120.605 20.9911 120.412 21.5216C120.224 22.0477 120.13 22.6252 120.13 23.2541C120.13 23.8872 120.224 24.4668 120.412 24.993C120.605 25.5191 120.898 25.9405 121.292 26.2571C121.689 26.5736 122.19 26.7319 122.793 26.7319Z" fill="#202020"/>
<path d="M129.523 28.1436V18.2876H131.377V19.8532H131.48C131.659 19.3228 131.976 18.9057 132.429 18.602C132.887 18.294 133.405 18.14 133.982 18.14C134.102 18.14 134.243 18.1443 134.406 18.1528C134.572 18.1614 134.703 18.1721 134.797 18.1849V20.0201C134.72 19.9987 134.583 19.9752 134.386 19.9495C134.19 19.9195 133.993 19.9046 133.796 19.9046C133.343 19.9046 132.938 20.0008 132.583 20.1933C132.233 20.3815 131.954 20.6446 131.749 20.9826C131.544 21.3162 131.441 21.697 131.441 22.1247V28.1436H129.523Z" fill="#202020"/>
<path d="M137.97 31.8396C137.683 31.8396 137.423 31.816 137.187 31.769C136.952 31.7262 136.777 31.6791 136.661 31.6278L137.123 30.0557C137.474 30.1498 137.786 30.1905 138.06 30.1776C138.334 30.1648 138.575 30.0621 138.785 29.8696C138.999 29.6771 139.187 29.3627 139.35 28.9264L139.587 28.2719L135.981 18.2876H138.034L140.53 25.9362H140.633L143.129 18.2876H145.189L141.127 29.459C140.939 29.9723 140.699 30.4065 140.408 30.7616C140.118 31.1209 139.771 31.3904 139.369 31.57C138.967 31.7497 138.501 31.8396 137.97 31.8396Z" fill="#202020"/>
</svg>
