<svg width="146" height="43" viewBox="0 0 146 43" fill="none" xmlns="http://www.w3.org/2000/svg">
<mask id="mask0_891_1056" style="mask-type:alpha" maskUnits="userSpaceOnUse" x="0" y="0" width="39" height="43">
<path fill-rule="evenodd" clip-rule="evenodd" d="M0 0.00012207H38.2232V42.225H0V0.00012207Z" fill="white"/>
</mask>
<g mask="url(#mask0_891_1056)">
<path fill-rule="evenodd" clip-rule="evenodd" d="M18.6513 29.1553C18.9209 29.3787 19.3076 29.3765 19.5772 29.1532C21.533 27.5378 22.9431 25.4222 23.7013 22.9749C23.7909 22.6858 23.5806 22.3909 23.2778 22.3909H20.1641C19.2599 22.3909 18.4525 21.7296 18.3665 20.829C18.2682 19.7969 19.0777 18.9288 20.0896 18.9288H25.9202C26.1819 18.9288 26.445 18.9744 26.6813 19.0864C27.3875 19.4218 27.7582 20.1453 27.6722 20.8651C27.0543 26.0308 24.3417 30.371 20.0347 33.0851C19.7528 33.2636 19.4326 33.3525 19.1117 33.3525C18.7908 33.3525 18.4706 33.2636 18.1887 33.0851C13.3606 30.0422 10.4782 24.8223 10.4782 19.1218V17.4696C10.4782 14.3017 13.0462 11.7336 16.2148 11.7336H25.9397C26.8439 11.7336 27.6513 12.395 27.7373 13.2948C27.8356 14.3262 27.0261 15.1957 26.0149 15.1957H16.2148C14.9587 15.1957 13.9403 16.2141 13.9403 17.4696V19.1218C13.9403 23.0515 15.6749 26.6929 18.6513 29.1553ZM35.1341 8.29466L22.2016 0.828419C20.2898 -0.275977 17.9343 -0.275977 16.0219 0.828419L3.09002 8.29466C1.17757 9.39833 -0.000549316 11.438 -0.000549316 13.6461V28.5785C-0.000549316 30.7866 1.17757 32.827 3.09002 33.9307L16.0219 41.3969C17.9343 42.5013 20.2898 42.5013 22.2016 41.3969L35.1341 33.9307C37.0459 32.827 38.2233 30.7866 38.2233 28.5785V13.6461C38.2233 11.438 37.0459 9.39833 35.1341 8.29466Z" fill="white"/>
</g>
<path d="M61.9519 18.4757C61.8279 18.0864 61.661 17.7378 61.4514 17.4298C61.2461 17.1175 61.0001 16.8523 60.7135 16.6341C60.4269 16.4117 60.0997 16.2427 59.7318 16.1272C59.3682 16.0117 58.9682 15.954 58.5319 15.954C57.7918 15.954 57.1245 16.1443 56.5299 16.5251C55.9352 16.9058 55.4647 17.464 55.1182 18.1998C54.776 18.9313 54.6049 19.8275 54.6049 20.8884C54.6049 21.9535 54.7781 22.854 55.1246 23.5898C55.4711 24.3256 55.9459 24.8838 56.5491 25.2645C57.1523 25.6453 57.8389 25.8356 58.6089 25.8356C59.3232 25.8356 59.9457 25.6902 60.4761 25.3993C61.0108 25.1084 61.4236 24.6977 61.7145 24.1673C62.0097 23.6326 62.1573 23.0037 62.1573 22.2808L62.6706 22.377H58.9104V20.7408H64.0758V22.2359C64.0758 23.3395 63.8406 24.2978 63.37 25.1105C62.9037 25.919 62.2578 26.5436 61.4322 26.9842C60.6109 27.4248 59.6697 27.6451 58.6089 27.6451C57.4196 27.6451 56.3759 27.3713 55.4775 26.8238C54.5835 26.2762 53.8862 25.4998 53.3857 24.4945C52.8852 23.485 52.6349 22.2872 52.6349 20.9012C52.6349 19.8532 52.7804 18.912 53.0713 18.0779C53.3622 17.2437 53.7707 16.5357 54.2969 15.954C54.8273 15.3679 55.4497 14.9209 56.1641 14.6129C56.8828 14.3006 57.6677 14.1445 58.519 14.1445C59.2291 14.1445 59.89 14.2493 60.5018 14.4589C61.1178 14.6685 61.6653 14.9658 62.1444 15.3508C62.6278 15.7358 63.0278 16.1935 63.3443 16.724C63.6609 17.2501 63.8748 17.8341 63.986 18.4757H61.9519Z" fill="white"/>
<path d="M70.6866 27.6644C69.7156 27.6644 68.8793 27.4569 68.1777 27.042C67.4804 26.6227 66.9414 26.0345 66.5607 25.2774C66.1843 24.5159 65.996 23.624 65.996 22.6016C65.996 21.5921 66.1843 20.7023 66.5607 19.9323C66.9414 19.1623 67.4719 18.5613 68.152 18.1292C68.8365 17.6972 69.6364 17.4811 70.5519 17.4811C71.108 17.4811 71.647 17.5731 72.1689 17.7571C72.6907 17.941 73.1592 18.2297 73.5741 18.6233C73.989 19.0169 74.3163 19.528 74.5559 20.1569C74.7954 20.7814 74.9152 21.5407 74.9152 22.4348V23.115H67.0804V21.6776H73.0351C73.0351 21.1729 72.9324 20.7258 72.7271 20.3365C72.5218 19.943 72.233 19.6329 71.8609 19.4061C71.493 19.1794 71.0609 19.066 70.5647 19.066C70.0257 19.066 69.5551 19.1987 69.153 19.4639C68.7552 19.7248 68.4472 20.067 68.229 20.4905C68.0151 20.9098 67.9082 21.3654 67.9082 21.8573V22.9802C67.9082 23.639 68.0237 24.1994 68.2547 24.6614C68.49 25.1234 68.8172 25.4763 69.2364 25.7201C69.6557 25.9597 70.1455 26.0795 70.7059 26.0795C71.0695 26.0795 71.401 26.0281 71.7004 25.9255C71.9999 25.8185 72.2587 25.6602 72.4769 25.4506C72.695 25.241 72.8619 24.9822 72.9774 24.6742L74.7933 25.0015C74.6478 25.5362 74.3869 26.0046 74.0104 26.4067C73.6383 26.8045 73.1699 27.1147 72.6052 27.3371C72.0448 27.5553 71.4053 27.6644 70.6866 27.6644Z" fill="white"/>
<path d="M81.1955 27.6644C80.2715 27.6644 79.4651 27.4526 78.7764 27.0291C78.0877 26.6056 77.553 26.0132 77.1722 25.2517C76.7915 24.4903 76.6012 23.6005 76.6012 22.5824C76.6012 21.56 76.7915 20.6659 77.1722 19.9002C77.553 19.1345 78.0877 18.5399 78.7764 18.1164C79.4651 17.6929 80.2715 17.4811 81.1955 17.4811C82.1195 17.4811 82.9258 17.6929 83.6146 18.1164C84.3033 18.5399 84.838 19.1345 85.2187 19.9002C85.5995 20.6659 85.7898 21.56 85.7898 22.5824C85.7898 23.6005 85.5995 24.4903 85.2187 25.2517C84.838 26.0132 84.3033 26.6056 83.6146 27.0291C82.9258 27.4526 82.1195 27.6644 81.1955 27.6644ZM81.2019 26.0538C81.8008 26.0538 82.297 25.8955 82.6906 25.579C83.0841 25.2624 83.375 24.841 83.5632 24.3149C83.7557 23.7887 83.852 23.2091 83.852 22.576C83.852 21.9471 83.7557 21.3696 83.5632 20.8435C83.375 20.313 83.0841 19.8874 82.6906 19.5665C82.297 19.2457 81.8008 19.0853 81.2019 19.0853C80.5987 19.0853 80.0982 19.2457 79.7004 19.5665C79.3069 19.8874 79.0138 20.313 78.8213 20.8435C78.6331 21.3696 78.539 21.9471 78.539 22.576C78.539 23.2091 78.6331 23.7887 78.8213 24.3149C79.0138 24.841 79.3069 25.2624 79.7004 25.579C80.0982 25.8955 80.5987 26.0538 81.2019 26.0538Z" fill="white"/>
<path d="M96.0276 17.6095L92.4535 27.4655H90.4002L86.8197 17.6095H88.8794L91.3755 25.194H91.4782L93.9678 17.6095H96.0276Z" fill="white"/>
<path d="M97.8307 27.4655V17.6095H99.7493V27.4655H97.8307ZM98.7996 16.0887C98.4659 16.0887 98.1793 15.9775 97.9398 15.7551C97.7045 15.5283 97.5868 15.2588 97.5868 14.9466C97.5868 14.63 97.7045 14.3605 97.9398 14.1381C98.1793 13.9113 98.4659 13.798 98.7996 13.798C99.1333 13.798 99.4177 13.9113 99.653 14.1381C99.8926 14.3605 100.012 14.63 100.012 14.9466C100.012 15.2588 99.8926 15.5283 99.653 15.7551C99.4177 15.9775 99.1333 16.0887 98.7996 16.0887Z" fill="white"/>
<path d="M109.716 20.0157L107.977 20.3237C107.904 20.1013 107.789 19.8895 107.631 19.6885C107.477 19.4874 107.267 19.3227 107.002 19.1944C106.736 19.066 106.405 19.0019 106.007 19.0019C105.464 19.0019 105.01 19.1238 104.647 19.3676C104.283 19.6072 104.101 19.9173 104.101 20.298C104.101 20.6274 104.223 20.8927 104.467 21.0937C104.711 21.2948 105.104 21.4595 105.648 21.5878L107.213 21.9471C108.12 22.1567 108.796 22.4797 109.241 22.916C109.686 23.3524 109.908 23.9192 109.908 24.6165C109.908 25.2068 109.737 25.733 109.395 26.195C109.057 26.6527 108.584 27.012 107.977 27.273C107.374 27.5339 106.674 27.6644 105.879 27.6644C104.775 27.6644 103.875 27.4291 103.177 26.9585C102.48 26.4837 102.052 25.81 101.894 24.9373L103.748 24.655C103.864 25.1383 104.101 25.5041 104.461 25.7522C104.82 25.996 105.288 26.118 105.866 26.118C106.495 26.118 106.997 25.9875 107.374 25.7265C107.75 25.4613 107.939 25.1383 107.939 24.7576C107.939 24.4496 107.823 24.1908 107.592 23.9812C107.365 23.7716 107.017 23.6133 106.546 23.5064L104.878 23.1406C103.958 22.931 103.278 22.5974 102.837 22.1396C102.401 21.6819 102.183 21.1023 102.183 20.4007C102.183 19.8189 102.345 19.3099 102.67 18.8735C102.996 18.4372 103.445 18.0971 104.018 17.8533C104.591 17.6052 105.248 17.4811 105.988 17.4811C107.053 17.4811 107.891 17.7121 108.503 18.1741C109.115 18.6319 109.519 19.2457 109.716 20.0157Z" fill="white"/>
<path d="M116.619 17.6095V19.1495H111.235V17.6095H116.619ZM112.679 15.2481H114.597V24.5715C114.597 24.9437 114.653 25.2239 114.764 25.4121C114.875 25.5961 115.019 25.7223 115.194 25.7907C115.374 25.8549 115.568 25.887 115.778 25.887C115.932 25.887 116.067 25.8763 116.182 25.8549C116.298 25.8335 116.388 25.8164 116.452 25.8035L116.798 27.3885C116.687 27.4312 116.529 27.474 116.323 27.5168C116.118 27.5638 115.861 27.5895 115.553 27.5938C115.049 27.6023 114.578 27.5125 114.142 27.3243C113.705 27.1361 113.353 26.8452 113.083 26.4516C112.814 26.0581 112.679 25.564 112.679 24.9694V15.2481Z" fill="white"/>
<path d="M122.787 27.6644C121.863 27.6644 121.056 27.4526 120.368 27.0291C119.679 26.6056 119.144 26.0132 118.763 25.2517C118.383 24.4903 118.192 23.6005 118.192 22.5824C118.192 21.56 118.383 20.6659 118.763 19.9002C119.144 19.1345 119.679 18.5399 120.368 18.1164C121.056 17.6929 121.863 17.4811 122.787 17.4811C123.711 17.4811 124.517 17.6929 125.206 18.1164C125.894 18.5399 126.429 19.1345 126.81 19.9002C127.191 20.6659 127.381 21.56 127.381 22.5824C127.381 23.6005 127.191 24.4903 126.81 25.2517C126.429 26.0132 125.894 26.6056 125.206 27.0291C124.517 27.4526 123.711 27.6644 122.787 27.6644ZM122.793 26.0538C123.392 26.0538 123.888 25.8955 124.282 25.579C124.675 25.2624 124.966 24.841 125.154 24.3149C125.347 23.7887 125.443 23.2091 125.443 22.576C125.443 21.9471 125.347 21.3696 125.154 20.8435C124.966 20.313 124.675 19.8874 124.282 19.5665C123.888 19.2457 123.392 19.0853 122.793 19.0853C122.19 19.0853 121.689 19.2457 121.292 19.5665C120.898 19.8874 120.605 20.313 120.412 20.8435C120.224 21.3696 120.13 21.9471 120.13 22.576C120.13 23.2091 120.224 23.7887 120.412 24.3149C120.605 24.841 120.898 25.2624 121.292 25.579C121.689 25.8955 122.19 26.0538 122.793 26.0538Z" fill="white"/>
<path d="M129.523 27.4655V17.6095H131.377V19.1751H131.48C131.659 18.6447 131.976 18.2276 132.429 17.9239C132.887 17.6159 133.405 17.4619 133.982 17.4619C134.102 17.4619 134.243 17.4662 134.406 17.4747C134.572 17.4833 134.703 17.494 134.797 17.5068V19.342C134.72 19.3206 134.583 19.297 134.386 19.2714C134.19 19.2414 133.993 19.2265 133.796 19.2265C133.343 19.2265 132.938 19.3227 132.583 19.5152C132.233 19.7034 131.954 19.9665 131.749 20.3045C131.544 20.6381 131.441 21.0189 131.441 21.4466V27.4655H129.523Z" fill="white"/>
<path d="M137.97 31.1614C137.683 31.1614 137.423 31.1379 137.187 31.0909C136.952 31.0481 136.777 31.001 136.661 30.9497L137.123 29.3776C137.474 29.4717 137.786 29.5124 138.06 29.4995C138.334 29.4867 138.575 29.384 138.785 29.1915C138.999 28.999 139.187 28.6846 139.35 28.2483L139.587 27.5938L135.981 17.6095H138.034L140.53 25.2581H140.633L143.129 17.6095H145.189L141.127 28.7809C140.939 29.2942 140.699 29.7284 140.408 30.0835C140.118 30.4428 139.771 30.7123 139.369 30.8919C138.967 31.0716 138.501 31.1614 137.97 31.1614Z" fill="white"/>
</svg>
