<?xml version="1.0" encoding="UTF-8" standalone="no"?>
<!DOCTYPE svg PUBLIC "-//W3C//DTD SVG 1.1//EN" "http://www.w3.org/Graphics/SVG/1.1/DTD/svg11.dtd">
<svg width="100%" height="100%" viewBox="0 0 652 223" version="1.1" xmlns="http://www.w3.org/2000/svg" xmlns:xlink="http://www.w3.org/1999/xlink" xml:space="preserve" xmlns:serif="http://www.serif.com/" style="fill-rule:evenodd;clip-rule:evenodd;stroke-linejoin:round;stroke-miterlimit:2;">
    <g transform="matrix(1,0,0,1,0,-208)">
        <path d="M235.2,383.9L235.2,376.9L252.3,349.1C253.3,347.5 254.3,346.1 255.4,344.6C253.7,344.7 251.5,344.7 246.8,344.7L235.8,344.7L235.8,336.5L266.4,336.5L266.4,343.8L248.3,372.3C247.6,373.4 247,374.5 246.1,375.6C247.3,375.5 250.5,375.5 256.4,375.5L266.7,375.5L266.7,383.9L235.2,383.9ZM295.7,383.9C295.7,382.3 295.8,379.5 296.1,377.7L296,377.6C293.9,381.7 289.9,384.6 284.1,384.6C276.2,384.6 273.7,379.5 273.7,373.4L273.7,349L282.6,349L282.6,371.3C282.6,375 283.6,377.1 287,377.1C291.6,377.1 295.1,371.9 295.1,365.8L295.1,349L304.1,349L304.1,383.9L295.7,383.9ZM332.5,357.1C326,355.8 322.8,360 322.8,369.7L322.8,384L313.8,384L313.8,349L322.3,349C322.3,350.8 322.1,353.6 321.7,356L321.8,356C323.5,351.6 326.9,347.7 332.9,348.2L332.5,357.1ZM343.9,344.5C340.8,344.5 338.3,342 338.3,339C338.3,336.1 340.8,333.6 343.9,333.6C347,333.6 349.5,336 349.5,339C349.6,342 347,344.5 343.9,344.5ZM339.4,383.9L339.4,349L348.4,349L348.4,383.9L339.4,383.9ZM370.7,384.5C361,384.5 355,379.4 355,367.6C355,356.7 360.7,348.4 373.1,348.4C375.5,348.4 378,348.8 380.3,349.4L379.4,357.2C377.5,356.5 375.3,355.9 373.1,355.9C367.4,355.9 364.5,360.1 364.5,366.7C364.5,372.7 366.8,376.7 372.8,376.7C375.2,376.7 377.8,376.2 379.7,375.2L380.4,382.9C377.9,383.8 374.5,384.5 370.7,384.5ZM408.7,383.9L408.7,361.6C408.7,357.9 407.7,355.8 404.4,355.8C399.8,355.8 396.3,361 396.3,367.1L396.3,384L387.3,384L387.3,332.7L396.3,332.7L396.3,347.7C396.3,349.8 396.2,352.8 395.7,354.8L395.8,354.9C397.8,351 401.8,348.4 407.3,348.4C415.2,348.4 417.7,353.5 417.7,359.6L417.7,384.1C417.7,383.9 408.7,383.9 408.7,383.9ZM431.6,350.8C425.9,350.8 424.5,347.7 424.5,344.1L424.5,332.5L428.6,332.5L428.6,343.8C428.6,345.9 429.3,347.2 431.8,347.2C434.1,347.2 435,346.2 435,343.5L435,332.4L439.1,332.4L439.1,343.3C439.2,348.5 436.3,350.8 431.6,350.8ZM442.6,350.5L442.6,347.3L448.3,337.7C448.6,337.2 448.9,336.8 449.3,336.3C448.8,336.3 448.2,336.4 446.5,336.4L442.8,336.4L442.8,332.7L454.4,332.7L454.4,336.1L448.3,345.9C448.1,346.2 447.9,346.5 447.6,346.9C447.9,346.8 448.9,346.8 451.1,346.8L454.5,346.8L454.5,350.6L442.6,350.5ZM468.9,350.5L468.9,343L462.4,343L462.4,350.4L458.3,350.4L458.3,332.5L462.4,332.5L462.4,339.4L468.9,339.4L468.9,332.5L473,332.5L473,350.4L468.9,350.4L468.9,350.5ZM255.3,310.4C240.3,310.4 237,302.3 237,293.2L237,262.2L246.1,262.2L246.1,292.6C246.1,298.6 248.1,302.8 255.9,302.8C262.9,302.8 265.9,299.8 265.9,291.8L265.9,262.2L275,262.2L275,291.2C274.9,304.3 267.8,310.4 255.3,310.4ZM306.1,309.9L306.1,287.4C306.1,283.7 305.1,281.6 301.8,281.6C297.2,281.6 293.7,286.8 293.7,292.9L293.7,309.8L284.7,309.8L284.7,274.9L293.2,274.9C293.2,276.5 293.1,279.3 292.7,281.1L292.8,281.2C294.9,277.1 299,274.2 304.7,274.2C312.6,274.2 315.1,279.3 315.1,285.4L315.1,309.9L306.1,309.9ZM329.3,270.3C326.2,270.3 323.8,267.8 323.8,264.8C323.8,261.8 326.3,259.4 329.3,259.4C332.4,259.4 334.9,261.8 334.9,264.8C334.9,267.8 332.4,270.3 329.3,270.3ZM324.8,309.7L324.8,274.8L333.8,274.8L333.8,309.7L324.8,309.7ZM360.9,309.7L351.8,309.7L338.9,274.8L348.7,274.8L354.2,290.5C355,292.9 355.9,295.7 356.5,298.2L356.6,298.2C357.2,295.8 357.9,293.1 358.7,290.8L364.3,274.8L373.9,274.8L360.9,309.7ZM406.1,293.6L384.5,293.6C384.4,300.1 387.7,303.3 394.1,303.3C397.5,303.3 401.3,302.5 404.3,301.1L405.1,308.1C401.4,309.6 396.9,310.3 392.6,310.3C381.5,310.3 375.3,304.7 375.3,292.5C375.3,281.8 381.2,273.9 391.7,273.9C401.9,273.9 406.4,280.9 406.4,289.5C406.4,290.8 406.3,292.2 406.1,293.6ZM391.4,280.6C387.7,280.6 385.1,283.3 384.6,287.6L397.5,287.6C397.6,283.2 395.2,280.6 391.4,280.6ZM432.6,282.8C426.1,281.5 422.9,285.7 422.9,295.4L422.9,309.7L413.9,309.7L413.9,274.8L422.4,274.8C422.4,276.6 422.2,279.4 421.8,281.8L421.9,281.8C423.6,277.4 427,273.5 433,274L432.6,282.8ZM444.9,310.4C442.4,310.4 439.8,310.1 437.6,309.8L437.8,302.4C440,303 442.6,303.5 445.3,303.5C448.7,303.5 451,302.1 451,299.8C451,293.6 436.9,297.1 436.9,285.3C436.9,279.2 441.9,274.1 451.7,274.1C453.7,274.1 456,274.4 458.1,274.7L457.8,281.8C455.8,281.2 453.5,280.9 451.3,280.9C447.8,280.9 446.1,282.3 446.1,284.5C446.1,290.2 460.4,287.7 460.4,299C460.5,305.7 454.4,310.4 444.9,310.4ZM472.6,270.3C469.5,270.3 467,267.8 467,264.8C467,261.8 469.5,259.4 472.6,259.4C475.7,259.4 478.2,261.8 478.2,264.8C478.2,267.8 475.7,270.3 472.6,270.3ZM468.1,309.7L468.1,274.8L477.1,274.8L477.1,309.7L468.1,309.7ZM499.8,310.4C492.1,310.4 489.6,307.6 489.6,299.4L489.6,281.7L483.6,281.7L483.6,274.7L489.6,274.7L489.6,264L498.6,261.6L498.6,274.7L507.1,274.7L507.1,281.7L498.6,281.7L498.6,297C498.6,301.5 499.7,302.8 502.7,302.8C504.2,302.8 505.8,302.6 507.1,302.2L507.1,309.4C504.9,310 502.2,310.4 499.8,310.4ZM531,312.9C526.9,323.8 523.2,327.1 515.2,327.1C513.7,327.1 511.8,326.9 510.3,326.5L510.9,318.8C512.5,319.3 514,319.6 515.7,319.6C518.7,319.6 520.6,318.3 522.4,313.1L523.6,309.7L510.7,274.8L520.7,274.8L525.4,288.1C526.5,291.1 527.4,294.6 528.1,297.7L528.2,297.7C529,294.5 530.4,289.9 531.6,286.6L535.7,274.7L545.3,274.7L531,312.9ZM574.2,310.4C564.3,310.4 557.9,305.3 557.9,292.8C557.9,281.9 565.1,274 575.7,274C585.6,274 592,279.5 592,291.5C592,302.5 584.7,310.4 574.2,310.4ZM575.1,281.6C571.1,281.6 567.2,284.7 567.2,291.9C567.2,299.1 569.8,302.7 575,302.7C579.4,302.7 582.8,299.1 582.8,292C582.7,285.3 580.4,281.6 575.1,281.6ZM620.3,265.8C618.9,265.3 617.3,265.2 615.9,265.2C612,265.2 610.2,267.2 610.2,271.9L610.2,274.9L618.3,274.9L618.3,281.9L610.2,281.9L610.2,309.9L601.3,309.9L601.3,281.9L595.2,281.9L595.2,274.9L601.3,274.9L601.3,272.1C601.3,262.6 605.7,258 615.2,258C617.1,258 619.1,258.1 620.9,258.6L620.3,265.8Z" style="fill-rule:nonzero;"/>
    </g>
    <g transform="matrix(1,0,0,1,0,-208)">
        <path d="M47.5,354.7C45.5,355.6 45.1,355.7 44.7,355.9C44.3,356.1 44.1,356.3 44.2,356.8C44.2,356.9 44.3,357.2 44.4,357.3C44.5,357.4 44.5,357.5 44.4,357.6C44.3,357.6 44.2,357.6 44.2,357.4C43.9,356.7 43.6,355.8 43.4,355.4C43.3,355.1 42.9,354.3 42.7,353.8C42.6,353.6 42.6,353.5 42.7,353.5C42.8,353.5 42.9,353.5 42.9,353.7C43,353.8 43,353.9 43.1,354.1C43.3,354.4 43.6,354.4 44.1,354.3C44.5,354.1 44.9,354 47,353.1L48.9,352.3C50.8,351.5 51.5,350.7 51.7,349.8C51.9,349 51.7,348.3 51.5,347.9C51.3,347.3 50.8,346.7 50,346.4C48.9,346 47.7,346.5 46.3,347L44.6,347.7C42.6,348.6 42.2,348.7 41.8,348.9C41.4,349.1 41.2,349.3 41.3,349.8C41.3,349.9 41.4,350.2 41.5,350.3C41.6,350.4 41.6,350.5 41.5,350.6C41.4,350.6 41.3,350.6 41.3,350.4C41,349.7 40.7,348.9 40.7,348.9C40.6,348.7 40.2,347.9 40,347.4C39.9,347.2 39.9,347.1 40,347.1C40.1,347.1 40.2,347.1 40.2,347.3C40.3,347.4 40.3,347.5 40.4,347.7C40.6,348 40.9,348 41.4,347.9C41.8,347.7 42.2,347.6 44.2,346.7L45.6,346.1C47.1,345.5 48.7,344.9 50.2,345.6C51.4,346.2 52,347.1 52.4,348C52.7,348.7 53.2,350 52.8,351.4C52.5,352.3 51.7,353.3 49.8,354.1L47.5,354.7ZM47,339.8C48.1,339.5 48.4,339.3 48.5,339C48.5,338.7 48.5,338.5 48.4,338.2C48.4,338 48.4,338 48.5,337.9C48.6,337.9 48.7,338 48.7,338.2C48.9,339.1 49,339.7 49,340C49,340.1 49.2,340.8 49.4,341.5C49.4,341.7 49.5,341.8 49.3,341.8C49.2,341.8 49.2,341.7 49.1,341.6C49.1,341.4 49,341.2 48.9,341C48.7,340.7 48.3,340.7 47,340.9L38.5,342.6C38.2,342.7 38,342.7 38,342.5C38,342.3 38.1,342.2 38.3,341.9C38.4,341.7 40.3,339 41.9,336.5C42.7,335.3 44.3,332.9 44.5,332.7L44.5,332.6L38.1,334.1C37.2,334.3 37,334.5 36.9,334.9C36.9,335.1 36.9,335.5 37,335.7C37,335.9 37,335.9 36.9,335.9C36.8,335.9 36.7,335.8 36.7,335.6C36.5,334.9 36.4,334.2 36.4,333.9C36.4,333.7 36.2,333.2 36,332.5C36,332.3 35.9,332.2 36.1,332.1C36.2,332.1 36.2,332.2 36.3,332.3C36.3,332.4 36.4,332.6 36.4,332.7C36.6,333.1 36.9,333.1 37.7,333L46.7,331.2C47,331.1 47.2,331.2 47.2,331.3C47.2,331.5 47.1,331.7 47,331.9C46.3,333 44.9,335.2 43.7,337C42.5,338.9 41.1,340.9 40.9,341.2L47,339.8ZM39.9,326.8C37.7,326.9 37.3,327 36.8,327C36.3,327.1 36.1,327.2 36,327.5L36,328C36,328.1 36,328.2 35.9,328.2C35.8,328.2 35.8,328.1 35.8,327.9C35.8,327.3 35.7,326.4 35.7,326C35.7,325.6 35.6,324.8 35.5,324.2C35.5,324 35.5,323.9 35.6,323.9C35.7,323.9 35.8,324 35.8,324.1C35.8,324.2 35.8,324.4 35.9,324.5C36,324.9 36.3,325 36.8,325C37.3,325 37.7,325 39.9,324.8L42.5,324.6C43.9,324.5 45.1,324.4 45.7,324.3C46.1,324.2 46.3,324.1 46.4,323.7L46.4,323C46.4,322.8 46.4,322.8 46.5,322.8C46.6,322.8 46.7,322.9 46.7,323.1C46.8,324.1 46.8,325 46.8,325.4C46.8,325.7 46.9,326.6 47,327.2C47,327.4 47,327.5 46.9,327.5C46.8,327.5 46.8,327.4 46.8,327.3C46.8,327.1 46.7,326.9 46.7,326.8C46.6,326.5 46.4,326.4 45.9,326.4C45.3,326.4 44.1,326.4 42.7,326.5L39.9,326.8ZM36.8,320.3C36,320.6 35.8,320.8 35.6,321.3C35.5,321.5 35.5,321.7 35.5,321.9C35.5,322 35.4,322.1 35.4,322.1C35.3,322.1 35.3,321.9 35.3,321.7C35.4,320.9 35.4,320.1 35.5,319.6C35.5,319.2 35.5,318.5 35.6,317.8C35.6,317.6 35.7,317.5 35.8,317.5C35.9,317.5 35.9,317.6 35.9,317.7C35.9,317.9 35.9,318.2 36,318.3C36.1,318.4 36.2,318.5 36.3,318.5C36.5,318.5 36.9,318.4 37.4,318.2L44.2,316.1L44.2,316C42.6,315.3 38.1,313.1 37.1,312.7C36.9,312.6 36.7,312.5 36.6,312.5C36.5,312.5 36.4,312.5 36.3,312.7C36.2,312.9 36.2,313.1 36.2,313.3C36.2,313.4 36.2,313.5 36.1,313.5C36,313.5 36,313.4 36,313.1C36.1,312.4 36.1,311.8 36.1,311.6L36.1,310.2C36.1,310 36.2,309.9 36.3,309.9C36.4,309.9 36.4,310 36.4,310.1C36.4,310.2 36.4,310.5 36.5,310.8C36.6,311 36.9,311.2 37.8,311.7C39.1,312.4 39.9,312.8 41.6,313.7C43.7,314.8 45.2,315.6 45.9,315.9C46.7,316.3 46.9,316.4 46.9,316.6C46.9,316.8 46.7,316.9 46,317.1L36.8,320.3ZM40.9,307.4C38.7,306.9 38.3,306.8 37.9,306.8C37.4,306.7 37.2,306.8 37,307.2C36.9,307.3 36.9,307.5 36.8,307.7C36.8,307.9 36.7,307.9 36.6,307.9C36.5,307.9 36.5,307.8 36.5,307.6C36.6,307.2 36.7,306.8 36.8,306.5C36.9,306.1 37,305.8 37,305.6C37.1,305.1 37.7,302.3 37.7,302C37.7,301.7 37.8,301.5 37.8,301.4L37.8,301.2C37.8,301.1 37.9,301.1 37.9,301.1C38,301.1 38.1,301.2 38.8,301.4C38.9,301.4 39.6,301.6 39.7,301.7C39.8,301.7 39.8,301.8 39.8,301.9C39.8,302 39.7,302 39.6,302C39.5,302 39.3,301.9 39.1,302C38.8,302 38.6,302.2 38.4,302.8C38.3,303 38,304.5 37.9,304.8C37.9,304.9 37.9,304.9 38,304.9L41.6,305.7C41.7,305.7 41.8,305.7 41.8,305.6C41.9,305.3 42.2,303.6 42.3,303.3C42.3,303 42.4,302.7 42.2,302.6C42.1,302.5 42,302.4 42.1,302.3C42.1,302.2 42.2,302.2 42.2,302.2C42.3,302.2 42.5,302.3 43.2,302.5C43.5,302.6 44,302.7 44.1,302.8C44.2,302.8 44.4,302.9 44.3,303C44.3,303.1 44.2,303.1 44.1,303.1C44,303.1 43.8,303 43.6,303C43.3,303 43,303.2 42.9,303.7C42.8,304 42.5,305.4 42.4,305.7C42.4,305.8 42.4,305.8 42.5,305.8L43.6,306C44.1,306.1 45.4,306.4 45.8,306.5C46.8,306.7 47.1,306.5 47.4,305C47.5,304.6 47.6,304 47.5,303.6C47.4,303.2 47.1,303 46.6,302.7C46.5,302.6 46.4,302.6 46.4,302.5C46.4,302.4 46.5,302.4 46.7,302.4C47,302.5 48,302.8 48.2,302.9C48.5,303.1 48.5,303.2 48.4,303.7C48.2,304.8 48,305.5 47.8,306.2C47.6,306.8 47.5,307.3 47.4,307.7C47.4,307.9 47.3,308.2 47.2,308.5C47.1,308.8 47.1,309.2 47,309.5C47,309.7 46.9,309.8 46.8,309.8C46.7,309.8 46.7,309.7 46.7,309.5C46.7,309.3 46.8,309.1 46.8,309C46.8,308.7 46.5,308.6 46.1,308.4C45.5,308.2 44.4,308 43.1,307.7L40.9,307.4ZM43.7,296.9C41.6,296.1 41.3,296 40.8,295.8C40.3,295.6 40.1,295.7 39.8,296.1C39.7,296.2 39.6,296.4 39.6,296.6C39.5,296.7 39.5,296.8 39.4,296.8C39.3,296.8 39.3,296.7 39.4,296.4C39.7,295.7 40.1,294.8 40.2,294.6C40.4,294.1 40.7,293.1 40.9,292.7C41.2,291.8 41.7,291 42.4,290.4C42.8,290.1 43.7,289.8 44.6,290.2C45.6,290.6 46.4,291.4 47,293.2C49,292.6 50.6,292.1 51.7,291.6C52.8,291.1 53.1,290.6 53.2,290.4C53.3,290.3 53.3,290.1 53.4,290C53.5,289.9 53.5,289.9 53.6,289.9C53.7,289.9 53.7,290 53.6,290.2L53.1,291.5C52.8,292.3 52.6,292.6 52.3,292.9C51.8,293.4 50.9,293.6 49.6,294C48.6,294.3 47.5,294.5 47.2,294.6C47.1,294.6 47,294.7 47,294.8L46.5,296C46.5,296.1 46.5,296.1 46.6,296.2L46.8,296.3C48.1,296.8 49.1,297.2 49.7,297.4C50.1,297.5 50.4,297.5 50.6,297.2C50.7,297 50.8,296.7 50.9,296.6C50.9,296.5 51,296.5 51.1,296.5C51.2,296.5 51.2,296.6 51.1,296.8C50.8,297.6 50.4,298.6 50.3,298.8C50.2,299.1 49.9,299.9 49.7,300.5C49.6,300.7 49.6,300.7 49.5,300.7C49.4,300.7 49.4,300.6 49.5,300.4C49.6,300.2 49.6,300 49.6,299.9C49.7,299.6 49.4,299.4 49,299.2C48.5,298.9 47.4,298.5 46.1,298L43.7,296.9ZM45.3,295.7C45.4,295.8 45.5,295.8 45.6,295.7C45.8,295.5 46,295.1 46.1,294.7C46.3,294.2 46.3,294 46.2,293.6C46.1,293.1 45.6,292.4 44.5,292C42.6,291.3 41.5,292.3 41.2,293.1C41.1,293.4 41,293.7 41,293.8C41,293.9 41,294 41.1,294L45.3,295.7ZM53.9,289.6C53.7,289.7 53.6,289.8 53.3,289.6C52.6,289.2 51.9,288.7 51.7,288.6C51.5,288.5 51.4,288.4 51.5,288.3C51.6,288.2 51.7,288.2 51.8,288.3C52,288.4 52.3,288.5 52.5,288.5C53.6,288.7 54.4,288.2 54.8,287.4C55.4,286.3 55,285.3 54.3,284.9C53.7,284.5 53,284.4 51.6,285L50.8,285.3C48.9,286.1 47.8,286.1 46.7,285.5C45.3,284.7 45,283 46,281.2C46.5,280.4 46.9,279.9 47.2,279.6C47.3,279.5 47.4,279.5 47.5,279.5C47.7,279.6 48,279.9 49,280.4C49.3,280.6 49.4,280.7 49.3,280.8C49.2,280.9 49.2,280.9 49,280.8C48.9,280.7 48.5,280.6 48,280.7C47.6,280.8 47.1,280.9 46.6,281.7C46.1,282.6 46.3,283.5 47,283.9C47.6,284.2 48.2,284.2 49.6,283.6L50.1,283.4C52.1,282.5 53.3,282.5 54.5,283.2C55.2,283.6 56,284.4 56,285.6C56,286.5 55.8,287.2 55.4,287.9C54.9,288.7 54.5,289.2 53.9,289.6ZM53.6,277.6C51.8,276.3 51.5,276.1 51.1,275.8C50.7,275.5 50.4,275.5 50.1,275.7C50,275.8 49.9,275.9 49.7,276.1C49.6,276.2 49.5,276.3 49.4,276.2C49.3,276.1 49.4,276 49.5,275.8C49.8,275.4 50.4,274.6 50.7,274.3C50.9,274 51.4,273.3 51.7,272.8C51.8,272.6 51.9,272.6 52,272.6C52.1,272.7 52.1,272.8 52,272.9C51.9,273 51.9,273.1 51.8,273.3C51.6,273.7 51.8,273.9 52.2,274.2C52.6,274.5 52.9,274.7 54.7,276L56.8,277.5C57.9,278.3 58.9,279 59.4,279.3C59.7,279.5 60,279.6 60.3,279.2C60.4,279.1 60.7,278.8 60.8,278.6C60.9,278.5 61,278.4 61,278.5C61.1,278.6 61.1,278.7 61,278.8C60.4,279.6 59.9,280.3 59.6,280.6C59.4,280.9 58.9,281.6 58.6,282.1C58.5,282.3 58.4,282.3 58.3,282.3C58.2,282.3 58.2,282.2 58.3,282C58.4,281.8 58.5,281.7 58.6,281.5C58.7,281.2 58.6,281 58.3,280.7C57.8,280.3 56.9,279.6 55.8,278.8L53.6,277.6ZM57.2,267.7L55.7,269.3C55.1,269.9 55,270.2 55,270.6C55.1,270.9 55.1,271 55.2,271.1C55.3,271.2 55.3,271.3 55.2,271.3C55.1,271.4 55.1,271.3 54.9,271.2C54.7,271 54,269.9 53.9,269.8C53.8,269.6 53.8,269.5 53.8,269.5C53.9,269.4 54.1,269.4 54.4,269.2C54.7,268.9 55.1,268.5 55.5,268.2L59.5,264C59.8,263.7 60,263.4 60.1,263.2C60.2,263 60.3,262.9 60.3,262.9C60.4,262.8 60.4,262.9 60.6,263C60.8,263.2 61.5,263.9 61.8,264.2C61.9,264.3 61.9,264.4 61.9,264.5C61.8,264.6 61.7,264.6 61.6,264.4L61.5,264.3C61.2,264.1 60.6,264.1 59.7,265L58.4,266.3L62.7,270.4C63.7,271.3 64.5,272.1 65,272.5C65.3,272.7 65.6,272.9 66,272.6C66.2,272.5 66.4,272.3 66.6,272.1C66.7,272 66.8,272 66.8,272C66.9,272.1 66.8,272.2 66.7,272.3C66,273 65.4,273.6 65.1,273.9C64.9,274.1 64.3,274.8 63.9,275.3C63.8,275.4 63.7,275.5 63.6,275.4C63.5,275.3 63.5,275.3 63.7,275.2C63.9,275 63.9,274.9 64,274.8C64.2,274.5 64,274.3 63.7,273.9C63.3,273.4 62.5,272.6 61.5,271.7L57.2,267.7ZM68.3,266C68.2,266 68.2,266.1 68.3,266.2L69,268.3C69.1,268.7 69.3,269 69.4,269.1C69.6,269.3 69.8,269.4 70.1,269.1L70.3,269C70.4,268.9 70.5,268.9 70.5,269C70.6,269.1 70.5,269.2 70.4,269.3C70,269.6 69.5,269.9 69.2,270.2C69.1,270.3 68.5,270.8 67.9,271.3C67.8,271.4 67.7,271.5 67.6,271.4C67.5,271.3 67.6,271.3 67.7,271.2C67.8,271.1 67.9,271 68,270.9C68.5,270.4 68.4,269.9 68.2,269.1L65.4,259.7C65.3,259.3 65.2,259.1 65.4,259C65.5,258.9 65.6,259 66,259.1C66.8,259.5 72.3,262.7 74.4,263.9C75.7,264.6 76.1,264.5 76.4,264.3C76.6,264.2 76.8,264.1 76.9,264C77,263.9 77.1,263.9 77.1,264C77.2,264.1 77.1,264.2 76.7,264.5C76.3,264.8 75.5,265.5 74.5,266.2C74.3,266.4 74.1,266.5 74.1,266.4C74,266.3 74.1,266.3 74.2,266.2C74.3,266.1 74.3,265.9 74.1,265.9L71.3,264.2L71.1,264.2L68.3,266ZM70.1,263.5C70.2,263.5 70.1,263.4 70.1,263.4L66.8,261.4L66.7,261.3L66.7,261.5L67.9,265.1C67.9,265.2 68,265.2 68,265.1L70.1,263.5ZM77.7,263.4C77.5,263.4 77.4,263.4 77.2,263.1C76.8,262.4 76.4,261.6 76.3,261.4C76.2,261.2 76.2,261 76.3,261C76.4,260.9 76.5,261 76.5,261.1C76.6,261.3 76.8,261.5 77,261.7C77.8,262.5 78.8,262.4 79.5,261.9C80.6,261.2 80.7,260.1 80.3,259.5C79.9,258.9 79.4,258.4 77.9,258.2L77.1,258.1C75.1,257.8 74.1,257.2 73.5,256.2C72.7,254.8 73.3,253.2 75,252.1C75.8,251.6 76.4,251.4 76.8,251.3C76.9,251.3 77,251.3 77.1,251.4C77.2,251.6 77.4,252 77.9,252.9C78.1,253.2 78.1,253.3 78,253.4C77.9,253.5 77.8,253.4 77.7,253.2C77.6,253.1 77.3,252.7 76.9,252.6C76.6,252.5 76,252.3 75.2,252.8C74.3,253.4 74,254.2 74.5,255C74.8,255.6 75.4,255.8 76.9,256L77.4,256.1C79.6,256.3 80.6,256.9 81.4,258.1C81.8,258.8 82.1,259.9 81.5,261C81.1,261.8 80.5,262.3 79.8,262.7C79,263.1 78.4,263.4 77.7,263.4ZM153.8,252.8L151.9,251.7C151.2,251.3 150.8,251.2 150.5,251.3C150.3,251.4 150.1,251.5 150,251.6C149.9,251.7 149.8,251.7 149.8,251.7C149.7,251.6 149.7,251.6 149.8,251.4C149.9,251.2 150.8,250.2 150.9,250.1C151,250 151.1,249.9 151.2,250C151.3,250.1 151.4,250.3 151.6,250.5C151.9,250.7 152.4,251.1 152.8,251.3L157.8,254.2C158.2,254.4 158.5,254.6 158.7,254.6C158.9,254.7 159,254.7 159.1,254.7C159.2,254.8 159.2,254.8 159,255C158.8,255.3 158.3,256.1 158.1,256.4C158,256.5 157.9,256.6 157.9,256.5C157.8,256.4 157.8,256.4 157.9,256.2L158,256.1C158.2,255.8 158,255.2 156.9,254.5L155.3,253.5L152.3,258.7C151.6,259.9 151,260.9 150.8,261.4C150.6,261.8 150.5,262.1 150.9,262.4C151.1,262.5 151.3,262.7 151.5,262.8C151.6,262.9 151.7,263 151.6,263C151.5,263.1 151.4,263.1 151.3,263C150.5,262.5 149.7,262 149.4,261.8C149.1,261.6 148.3,261.2 147.8,260.9C147.6,260.8 147.6,260.7 147.6,260.6C147.6,260.5 147.7,260.5 147.9,260.6C148.1,260.7 148.3,260.8 148.4,260.8C148.7,260.9 148.9,260.7 149.2,260.3C149.6,259.8 150.2,258.8 150.8,257.7L153.8,252.8ZM160.4,261.1C161.8,259.4 162.1,259.1 162.4,258.7C162.7,258.3 162.8,258.1 162.5,257.7C162.4,257.6 162.3,257.4 162.1,257.3C162,257.2 161.9,257.1 162,257C162.1,256.9 162.2,257 162.3,257.1C162.9,257.6 163.6,258.2 163.9,258.5C164.2,258.7 164.9,259.3 165.3,259.6C165.5,259.7 165.5,259.8 165.5,259.9C165.4,260 165.3,259.9 165.2,259.8C165.1,259.7 165,259.6 164.8,259.6C164.5,259.4 164.2,259.5 163.9,259.9C163.6,260.2 163.3,260.5 161.9,262.2L160.6,263.7C159.2,265.3 159,266.3 159.1,267.2C159.2,268 159.7,268.5 160.1,268.8C160.6,269.2 161.3,269.6 162.1,269.5C163.2,269.4 164.1,268.4 165.1,267.3L166.3,265.9C167.7,264.2 168,263.9 168.3,263.5C168.6,263.1 168.7,262.8 168.4,262.5C168.3,262.4 168.2,262.2 168,262.1C167.9,262 167.8,261.9 167.9,261.8C168,261.7 168.1,261.8 168.2,261.9C168.8,262.4 169.4,263 169.4,263C169.5,263.1 170.3,263.7 170.7,264C170.9,264.1 170.9,264.2 170.8,264.3C170.7,264.4 170.7,264.3 170.5,264.2C170.4,264.1 170.3,264 170.2,264C169.8,263.8 169.6,263.9 169.2,264.3C168.9,264.6 168.6,264.9 167.2,266.6L166.2,267.8C165.1,269 163.9,270.2 162.3,270.2C160.9,270.2 160,269.6 159.3,269C158.7,268.5 157.7,267.5 157.5,266.1C157.4,265.1 157.7,263.9 159,262.3L160.4,261.1ZM171.5,271.5C173.2,270.1 173.5,269.9 173.9,269.5C174.3,269.2 174.4,268.9 174.2,268.5C174.1,268.4 174,268.2 173.9,268C173.8,267.9 173.8,267.8 173.8,267.7C173.9,267.6 174,267.7 174.1,267.9C174.6,268.5 175.1,269.2 175.3,269.5C175.6,269.9 176.3,270.7 176.6,271.1C177.2,271.8 177.7,272.6 177.8,273.6C177.8,274.1 177.6,275 176.9,275.6C176.1,276.3 175,276.5 173.1,276.1C172.6,278.1 172.3,279.7 172.1,281C172,282.2 172.2,282.7 172.3,282.9C172.4,283 172.4,283.1 172.5,283.2C172.6,283.3 172.6,283.4 172.5,283.4C172.4,283.5 172.3,283.4 172.2,283.3L171.3,282.2C170.8,281.6 170.6,281.2 170.5,280.8C170.4,280.1 170.6,279.2 170.9,277.9C171.2,276.9 171.5,275.8 171.6,275.5C171.6,275.4 171.6,275.3 171.5,275.2L170.7,274.2C170.6,274.1 170.6,274.1 170.5,274.2L170.3,274.3C169.2,275.2 168.3,275.9 167.9,276.3C167.6,276.6 167.4,276.9 167.6,277.2C167.7,277.4 167.9,277.7 168,277.8C168.1,277.9 168.1,278 168,278C167.9,278.1 167.8,278 167.7,277.9C167.2,277.2 166.5,276.4 166.4,276.2C166.2,276 165.6,275.3 165.3,274.8C165.2,274.7 165.2,274.5 165.2,274.5C165.3,274.5 165.3,274.5 165.4,274.6C165.5,274.8 165.7,274.9 165.8,275C166,275.2 166.3,275 166.7,274.8C167.2,274.5 168.1,273.7 169.2,272.9L171.5,271.5ZM171.6,273.6C171.5,273.7 171.5,273.8 171.5,273.9C171.6,274.2 171.9,274.6 172.1,274.9C172.5,275.4 172.6,275.5 172.9,275.6C173.4,275.7 174.2,275.7 175.1,274.9C176.7,273.6 176.3,272.2 175.8,271.5C175.6,271.2 175.4,271 175.3,270.9C175.2,270.8 175.2,270.9 175.1,270.9L171.6,273.6ZM179.2,282.2C181.1,281.1 181.5,280.9 181.8,280.6C182.2,280.3 182.4,280.1 182.3,279.8C182.3,279.6 182.2,279.5 182.1,279.3C182,279.2 182,279.1 182.1,279C182.2,279 182.3,279 182.4,279.2C182.7,279.7 183.1,280.5 183.3,280.9C183.5,281.2 184,281.9 184.2,282.4C184.3,282.6 184.3,282.7 184.3,282.7C184.2,282.8 184.1,282.7 184.1,282.6C184,282.5 184,282.4 183.8,282.2C183.5,281.9 183.3,281.9 182.8,282.2C182.4,282.4 182,282.6 180.1,283.7L177.9,285C176.7,285.7 175.7,286.3 175.2,286.7C174.9,286.9 174.7,287.2 174.9,287.6C175,287.8 175.1,288.1 175.2,288.3C175.3,288.4 175.3,288.5 175.2,288.6C175.1,288.7 175,288.6 174.9,288.4C174.4,287.6 174,286.8 173.8,286.4C173.6,286.1 173.1,285.3 172.8,284.8C172.7,284.6 172.7,284.5 172.8,284.5C172.9,284.5 172.9,284.5 173,284.6C173.1,284.8 173.2,284.9 173.3,285C173.5,285.2 173.8,285.2 174.1,285C174.7,284.8 175.7,284.2 176.9,283.5L179.2,282.2ZM178.1,291.5C178.7,289.7 180.1,288.7 181.4,288.2C182.3,287.8 184,287.4 185.7,288.3C187,288.9 188.1,290 188.9,292C189.2,292.8 189.4,293.4 189.6,294C189.7,294.5 189.8,295 189.9,295.4C189.9,295.6 189.9,295.6 189.8,295.7C189.7,295.7 189.5,295.8 189,295.9C188.5,296.1 187.8,296.4 187.5,296.5C187.3,296.6 187.2,296.6 187.1,296.5C187.1,296.4 187.2,296.3 187.3,296.2C187.7,296 188.1,295.6 188.3,295.2C188.6,294.6 188.5,293.4 188,292.1C187.5,290.9 186.9,290.3 186.1,289.9C184.8,289.3 183.4,289.6 182.1,290.1C178.9,291.4 178.3,294.5 179.1,296.3C179.6,297.5 180,298.2 180.9,298.5C181.3,298.6 181.7,298.6 182,298.6C182.2,298.6 182.3,298.6 182.3,298.7C182.3,298.8 182.3,298.9 182.1,298.9C181.9,299 180.7,299.3 180.2,299.3C179.9,299.3 179.9,299.3 179.7,299.1C179.3,298.7 178.7,297.7 178.4,296.8C177.8,294.9 177.6,293.1 178.1,291.5ZM187.7,302.4C189.9,301.9 190.3,301.8 190.7,301.7C191.2,301.6 191.4,301.4 191.4,300.9C191.4,300.8 191.4,300.5 191.3,300.3C191.3,300.1 191.3,300.1 191.4,300C191.5,300 191.6,300.1 191.6,300.3C191.7,300.7 191.8,301.1 191.8,301.5C191.9,301.9 191.9,302.2 192,302.4C192.1,302.9 192.7,305.7 192.8,306C192.9,306.3 193,306.5 193,306.6C193,306.7 193.1,306.7 193.1,306.8C193.1,306.9 193.1,306.9 193,306.9C192.9,306.9 192.7,306.9 192,307C191.9,307 191.2,307.1 191,307.1C190.9,307.1 190.8,307.1 190.8,307C190.8,306.9 190.8,306.9 191,306.8C191.1,306.8 191.3,306.7 191.5,306.6C191.7,306.4 191.9,306.3 191.8,305.5C191.8,305.3 191.5,303.8 191.4,303.5C191.4,303.4 191.3,303.4 191.2,303.4L187.6,304.2C187.5,304.2 187.4,304.3 187.5,304.3C187.6,304.6 187.9,306.2 188,306.6C188.1,306.9 188.2,307.1 188.4,307.2C188.5,307.3 188.6,307.3 188.6,307.4C188.6,307.5 188.6,307.5 188.5,307.5C188.4,307.5 188.2,307.5 187.4,307.6C187.1,307.7 186.5,307.7 186.4,307.8C186.3,307.8 186.1,307.9 186.1,307.7C186.1,307.6 186.1,307.6 186.2,307.5C186.3,307.5 186.5,307.4 186.7,307.3C187,307.2 187.1,306.9 187.1,306.4C187.1,306.1 186.8,304.7 186.7,304.4C186.7,304.3 186.6,304.3 186.5,304.3L185.4,304.6C184.9,304.7 183.6,305 183.2,305.1C182.2,305.3 182.1,305.6 182.4,307.1C182.5,307.5 182.6,308.1 182.9,308.4C183.1,308.7 183.5,308.8 184.1,308.8C184.3,308.8 184.3,308.8 184.3,308.9C184.3,309 184.2,309 184.1,309.1C183.8,309.2 182.8,309.3 182.5,309.3C182.1,309.3 182.1,309.2 182,308.6C181.8,307.5 181.6,306.7 181.5,306.1C181.4,305.5 181.3,305 181.2,304.6C181.2,304.4 181.1,304.1 181,303.8C180.9,303.5 180.8,303.1 180.8,302.8C180.8,302.6 180.8,302.5 180.9,302.5C181,302.5 181,302.5 181.1,302.7C181.1,302.9 181.2,303.1 181.3,303.2C181.4,303.5 181.7,303.5 182.2,303.4C182.8,303.3 183.9,303.1 185.2,302.8L187.7,302.4ZM185,314.8C183.9,314.9 183.5,315.1 183.4,315.4C183.3,315.6 183.3,315.9 183.3,316.2C183.3,316.4 183.3,316.4 183.2,316.4C183.1,316.4 183,316.3 183,316.1L183,314.3C183,314.2 182.9,313.5 182.9,312.7C182.9,312.5 182.9,312.4 183,312.4C183.1,312.4 183.1,312.5 183.1,312.6C183.1,312.8 183.1,313.1 183.2,313.3C183.3,313.7 183.8,313.7 185,313.7L193.6,313.5C193.9,313.5 194.1,313.5 194.1,313.7C194.1,313.9 193.9,314 193.7,314.3C193.5,314.5 191.2,316.8 189.2,319C188.2,320 186.2,322.1 186,322.3L186,322.4L192.5,322C193.4,322 193.7,321.8 193.8,321.5C193.9,321.3 193.9,320.9 193.9,320.7C193.9,320.5 193.9,320.5 194,320.5C194.1,320.5 194.1,320.7 194.1,320.9L194.1,322.7C194.1,322.9 194.2,323.4 194.2,324.1C194.2,324.3 194.2,324.4 194.1,324.4C194,324.4 194,324.3 194,324.1C194,324 194,323.8 193.9,323.7C193.8,323.3 193.5,323.2 192.6,323.2L183.4,323.4C183.1,323.4 182.9,323.4 182.9,323.2C182.9,323 183,322.9 183.2,322.7C184,321.8 185.9,319.8 187.3,318.2C188.8,316.6 190.6,314.9 190.8,314.6L185,314.8ZM183.1,328.3C183.2,328.1 183.3,328.1 183.6,328.1C184.4,328.2 185.3,328.4 185.5,328.5C185.7,328.5 185.9,328.6 185.9,328.7C185.9,328.8 185.8,328.8 185.6,328.8L184.8,328.8C183.7,329 183.2,329.8 183,330.7C182.8,332 183.6,332.8 184.4,332.9C185.1,333 185.8,332.9 186.9,331.8L187.5,331.2C189,329.8 190.1,329.4 191.2,329.6C192.8,329.8 193.7,331.3 193.4,333.3C193.3,334.2 193,334.8 192.9,335.2C192.9,335.3 192.8,335.4 192.7,335.4C192.5,335.4 192.1,335.3 191,335.1C190.7,335.1 190.6,335 190.6,334.9C190.6,334.8 190.7,334.8 190.9,334.8C191,334.8 191.5,334.8 191.9,334.6C192.2,334.4 192.7,334.1 192.8,333.1C193,332 192.4,331.3 191.6,331.2C190.9,331.1 190.4,331.4 189.3,332.4L188.9,332.8C187.3,334.4 186.3,334.8 184.9,334.6C184.1,334.5 183.1,334 182.6,332.9C182.2,332.1 182.2,331.3 182.3,330.5C182.5,329.5 182.7,328.9 183.1,328.3ZM187.4,340.7C189.5,341.3 189.9,341.4 190.4,341.5C190.9,341.6 191.2,341.5 191.3,341.2C191.4,341.1 191.5,340.9 191.5,340.7C191.5,340.6 191.6,340.5 191.7,340.5C191.8,340.5 191.8,340.6 191.7,340.9C191.5,341.4 191.3,342.3 191.1,342.7C191,343.1 190.8,343.9 190.7,344.4C190.6,344.6 190.6,344.7 190.5,344.7C190.4,344.7 190.4,344.6 190.4,344.4C190.4,344.3 190.5,344.2 190.5,344C190.5,343.6 190.3,343.4 189.8,343.3C189.4,343.1 189,343 186.8,342.4L184.3,341.7C182.9,341.3 181.8,341 181.2,340.9C180.8,340.8 180.5,340.9 180.4,341.3C180.3,341.5 180.2,341.8 180.1,342C180.1,342.2 180,342.2 179.9,342.2C179.8,342.2 179.8,342 179.8,341.9C180.1,341 180.4,340.1 180.5,339.7C180.6,339.4 180.8,338.5 181,337.9C181.1,337.7 181.1,337.6 181.2,337.7C181.3,337.7 181.3,337.8 181.3,338C181.2,338.2 181.2,338.4 181.2,338.5C181.2,338.8 181.4,338.9 181.8,339.1C182.4,339.3 183.5,339.6 184.8,340L187.4,340.7ZM178.8,345.8C179,345.6 179.1,345.6 179.4,345.7C180.1,346 180.9,346.4 181.1,346.5C181.3,346.6 181.4,346.7 181.4,346.8C181.3,346.9 181.2,346.9 181.1,346.8C180.9,346.7 180.6,346.7 180.4,346.6C179.3,346.5 178.6,347.1 178.2,347.9C177.7,349.1 178.2,350 178.9,350.4C179.6,350.7 180.3,350.8 181.6,350L182.3,349.6C184.1,348.6 185.2,348.5 186.3,349C187.8,349.6 188.3,351.3 187.5,353.2C187.1,354.1 186.7,354.6 186.5,354.9C186.4,355 186.4,355.1 186.3,355C186.1,354.9 185.8,354.7 184.7,354.3C184.4,354.2 184.3,354.1 184.4,354C184.4,353.9 184.5,353.9 184.7,354C184.8,354.1 185.3,354.2 185.7,354C186,353.9 186.6,353.7 187,352.8C187.4,351.8 187.1,351 186.3,350.6C185.7,350.3 185.1,350.4 183.8,351.2L183.4,351.4C181.5,352.5 180.3,352.7 179,352.1C178.2,351.8 177.4,351.1 177.2,349.8C177.1,348.9 177.3,348.1 177.6,347.4C178,346.8 178.3,346.3 178.8,345.8ZM74.7,390C74.6,390 74.5,390 74.3,389.9C74.1,389.8 74,389.7 73.9,389.2L73.2,384.3C73.2,384.1 73.1,384 73,384C72.9,384 72.8,384.1 72.7,384.2L70.6,388.5L68.5,384.2C68.4,384 68.3,383.9 68.2,383.9C68.1,383.9 68,384 68,384.2L67.2,389.3C67.2,389.6 67.1,389.8 66.9,389.9L66.7,389.9C66.6,389.9 66.5,389.9 66.5,390C66.5,390.1 66.6,390.2 66.7,390.2L68.4,390.2C68.5,390.2 68.6,390.2 68.7,390C68.7,389.9 68.6,389.9 68.5,389.9L68.2,389.9C68.1,389.9 68,389.8 68,389.7L68,389.3L68.4,386.4C68.7,387 69.1,387.8 69.1,387.9C69.2,388.1 69.8,389.3 70,389.7C70.1,389.9 70.2,390.1 70.4,390.1C70.6,390.1 70.6,390 70.8,389.6L72.5,386.2L72.9,389.4L72.9,389.7C72.8,389.7 72.8,389.8 72.8,389.8C72.8,389.9 72.9,390 73.1,390C73.4,390 74.6,390.1 74.8,390.1C74.9,390.1 75.1,390.1 75.1,389.9C74.9,390 74.8,390 74.7,390ZM81.4,385.1C80.5,384.2 79.1,384.2 78.1,384.2L75.6,384.2C75.5,384.2 75.4,384.2 75.3,384.3C75.3,384.4 75.4,384.5 75.5,384.5L75.8,384.5C76,384.6 76.1,384.6 76.1,384.9L76.1,389.7C76.1,389.9 76,390 75.9,390.1L75.6,390.1C75.5,390.1 75.4,390.2 75.4,390.3C75.4,390.4 75.5,390.4 75.6,390.4L76.7,390.4C76.9,390.4 77.2,390.4 77.5,390.5L78.5,390.5C80,390.5 80.9,389.9 81.3,389.6C81.8,389.1 82.2,388.4 82.2,387.4C82.2,386.2 81.8,385.6 81.4,385.1ZM80.9,387.4C80.9,388.2 80.7,388.9 80.2,389.3C79.7,389.7 79.2,389.8 78.5,389.8C77.9,389.8 77.6,389.6 77.5,389.5C77.5,389.5 77.4,389.2 77.4,389L77.4,384.9C77.4,384.8 77.4,384.8 77.5,384.8C77.5,384.8 77.8,384.7 78,384.7C78.6,384.7 79.5,384.8 80.2,385.4C80.5,385.8 80.9,386.4 80.9,387.4ZM88.6,388.7C88.5,388.7 88.4,388.8 88.4,388.9C88.4,389 88.3,389.3 88.1,389.4C87.8,389.7 87.4,389.8 86.7,389.8C85.6,389.8 84.2,388.9 84.2,387.1C84.2,386.3 84.3,385.6 84.9,385.1C85.3,384.8 85.7,384.7 86.4,384.7C87.1,384.7 87.7,384.9 87.9,385.1C88.1,385.3 88.2,385.6 88.2,385.8C88.2,385.9 88.2,386 88.4,386C88.5,386 88.6,385.9 88.6,385.7L88.6,384.4C88.6,384.3 88.5,384.2 88.4,384.2C88.2,384.2 87.9,384.1 87.6,384.1C87.2,384.1 86.9,384 86.4,384C85.2,384 84.4,384.3 83.8,384.9C83,385.6 82.8,386.6 82.8,387.1C82.8,387.9 83,388.8 83.8,389.5C84.6,390.1 85.5,390.4 86.6,390.4C87.1,390.4 87.8,390.4 88.1,390.2C88.2,390.1 88.3,390.1 88.3,389.9C88.4,389.6 88.5,388.9 88.5,388.8C88.8,388.8 88.7,388.7 88.6,388.7ZM95.1,388.7C95,388.7 94.9,388.8 94.9,388.9C94.9,389 94.8,389.3 94.6,389.4C94.3,389.7 93.9,389.8 93.2,389.8C92.1,389.8 90.7,388.9 90.7,387.1C90.7,386.3 90.8,385.6 91.4,385.1C91.8,384.8 92.2,384.7 92.9,384.7C93.6,384.7 94.2,384.9 94.4,385.1C94.6,385.3 94.7,385.6 94.7,385.8C94.7,385.9 94.7,386 94.9,386C95,386 95.1,385.9 95.1,385.7L95.1,384.4C95.1,384.3 95,384.2 94.9,384.2C94.7,384.2 94.4,384.1 94.1,384.1C93.7,384.1 93.4,384 92.9,384C91.7,384 90.9,384.3 90.3,384.9C89.5,385.6 89.3,386.6 89.3,387.1C89.3,387.9 89.5,388.8 90.3,389.5C91.1,390.1 92,390.4 93.1,390.4C93.6,390.4 94.3,390.4 94.6,390.2C94.7,390.1 94.8,390.1 94.8,389.9C94.9,389.6 95,388.9 95,388.8C95.3,388.8 95.3,388.7 95.1,388.7ZM101.7,388.7C101.6,388.7 101.5,388.8 101.5,388.9C101.5,389 101.4,389.3 101.2,389.4C100.9,389.7 100.5,389.8 99.8,389.8C98.7,389.8 97.3,388.9 97.3,387.1C97.3,386.3 97.4,385.6 98,385.1C98.4,384.8 98.8,384.7 99.5,384.7C100.2,384.7 100.8,384.9 101,385.1C101.2,385.3 101.3,385.6 101.3,385.8C101.3,385.9 101.3,386 101.5,386C101.6,386 101.7,385.9 101.7,385.7L101.7,384.4C101.7,384.3 101.6,384.2 101.5,384.2C101.3,384.2 101,384.1 100.7,384.1C100.3,384.1 100,384 99.5,384C98.3,384 97.5,384.3 96.9,384.9C96.1,385.6 95.9,386.6 95.9,387.1C95.9,387.9 96.1,388.8 96.9,389.5C97.7,390.1 98.6,390.4 99.7,390.4C100.2,390.4 100.9,390.4 101.2,390.2C101.3,390.1 101.4,390.1 101.5,389.9C101.6,389.6 101.7,388.9 101.7,388.8C101.8,388.8 101.8,388.7 101.7,388.7ZM133.2,390L132.9,390C132.7,389.9 132.6,389.9 132.5,389.7C132.3,389.5 131,387.4 130.7,387L132,385.2C132.2,384.9 132.4,384.7 132.5,384.6L132.8,384.6C132.9,384.6 133,384.5 133,384.4C133,384.3 132.9,384.3 132.8,384.3L131.1,384.3C131,384.3 130.9,384.3 130.9,384.4C130.9,384.5 131,384.6 131.1,384.6L131.3,384.6C131.4,384.6 131.4,384.7 131.4,384.7C131.4,384.8 131.4,384.9 131.3,384.9C131.2,385.1 130.5,386 130.3,386.5C130,386 129.7,385.5 129.3,384.9C129.3,384.8 129.2,384.7 129.2,384.7L129.3,384.6L129.5,384.6C129.6,384.6 129.7,384.6 129.7,384.4C129.7,384.3 129.6,384.3 129.5,384.3L127.4,384.3C127.3,384.3 127.2,384.3 127.2,384.4C127.2,384.5 127.3,384.6 127.3,384.6C127.4,384.6 127.5,384.6 127.6,384.7C127.9,384.8 128,384.9 128.2,385.3L129.6,387.5L128,389.6C127.7,390 127.6,390.1 127.4,390.2L127.1,390.2C127,390.2 126.9,390.3 126.9,390.4C126.9,390.5 127,390.5 127.1,390.5L128.8,390.5C128.9,390.5 129,390.5 129,390.4C129,390.3 128.9,390.2 128.8,390.2L128.6,390.2C128.5,390.2 128.5,390.2 128.5,390.1C128.5,390 128.5,389.9 128.6,389.8L129.7,388C130.1,388.6 130.5,389.3 130.9,390L130.9,390.1C130.8,390.1 130.7,390.2 130.7,390.3C130.7,390.4 130.8,390.4 131.1,390.4L132.8,390.4C132.9,390.4 133,390.4 133,390.3C133.4,390.1 133.3,390 133.2,390ZM140.2,390L139.9,390C139.7,389.9 139.6,389.9 139.5,389.7C139.3,389.5 138,387.4 137.7,387L139,385.2C139.2,384.9 139.4,384.7 139.6,384.6L139.9,384.6C140,384.6 140.1,384.5 140.1,384.4C140.1,384.3 140,384.3 139.9,384.3L138.2,384.3C138.1,384.3 138,384.3 138,384.4C138,384.5 138.1,384.6 138.2,384.6L138.4,384.6C138.5,384.6 138.5,384.7 138.5,384.7C138.5,384.8 138.5,384.9 138.4,384.9C138.3,385.1 137.6,386 137.4,386.5C137.1,386 136.8,385.5 136.4,384.9C136.4,384.8 136.3,384.7 136.3,384.7L136.4,384.6L136.6,384.6C136.7,384.6 136.8,384.6 136.8,384.4C136.8,384.3 136.7,384.3 136.6,384.3L134.5,384.3C134.4,384.3 134.3,384.3 134.3,384.4C134.3,384.5 134.4,384.6 134.4,384.6C134.5,384.6 134.6,384.6 134.7,384.7C135,384.8 135.1,384.9 135.3,385.3L136.7,387.5L135.1,389.6C134.8,390 134.7,390.1 134.5,390.2L134.2,390.2C134.1,390.2 134,390.3 134,390.4C134,390.5 134.1,390.5 134.2,390.5L135.9,390.5C136,390.5 136.1,390.5 136.1,390.4C136.1,390.3 136,390.2 135.9,390.2L135.7,390.2C135.6,390.2 135.6,390.2 135.6,390.1C135.6,390 135.6,389.9 135.7,389.8L136.8,388C137.2,388.6 137.6,389.3 138,390L138,390.1C137.9,390.1 137.8,390.2 137.8,390.3C137.8,390.4 137.9,390.4 138.2,390.4L139.9,390.4C140,390.4 140.1,390.4 140.1,390.3C140.3,390.1 140.3,390 140.2,390ZM147.1,390L146.8,390C146.6,389.9 146.5,389.9 146.4,389.7C146.2,389.5 144.9,387.4 144.6,387L145.9,385.2C146.1,384.9 146.3,384.7 146.5,384.6L146.8,384.6C146.9,384.6 147,384.5 147,384.4C147,384.3 146.9,384.3 146.8,384.3L145.1,384.3C145,384.3 144.9,384.3 144.9,384.4C144.9,384.5 145,384.6 145.1,384.6L145.3,384.6C145.4,384.6 145.4,384.7 145.4,384.7C145.4,384.8 145.4,384.9 145.3,384.9C145.2,385.1 144.5,386 144.3,386.5C144,386 143.7,385.5 143.3,384.9C143.3,384.8 143.2,384.7 143.2,384.7L143.3,384.6C143.4,384.5 143.4,384.6 143.5,384.6C143.6,384.6 143.7,384.6 143.7,384.4C143.7,384.3 143.6,384.3 143.5,384.3L141.4,384.3C141.3,384.3 141.2,384.3 141.2,384.4C141.2,384.5 141.3,384.6 141.3,384.6C141.4,384.6 141.5,384.6 141.6,384.7C141.9,384.8 142,384.9 142.2,385.3L143.6,387.5L142,389.6C141.7,390 141.6,390.1 141.4,390.2L141.1,390.2C141,390.2 140.9,390.3 140.9,390.4C140.9,390.5 141,390.5 141.1,390.5L142.8,390.5C142.9,390.5 143,390.5 143,390.4C143,390.3 142.9,390.2 142.8,390.2L142.6,390.2C142.5,390.2 142.5,390.2 142.5,390.1C142.5,390 142.5,389.9 142.6,389.8L143.7,388C144.1,388.6 144.5,389.3 144.9,390L144.9,390.1C144.8,390.1 144.7,390.2 144.7,390.3C144.7,390.4 144.8,390.4 145.1,390.4L146.8,390.4C146.9,390.4 147,390.4 147,390.3C147.3,390.1 147.2,390 147.1,390ZM151.4,390L151,390C150.8,390 150.8,389.9 150.7,389.7L150.7,384.9C150.7,384.6 150.8,384.6 150.9,384.5L151.1,384.5C151.2,384.5 151.3,384.5 151.3,384.3C151.3,384.2 151.2,384.2 151.1,384.2L149,384.2C148.9,384.2 148.8,384.2 148.7,384.3C148.7,384.4 148.8,384.5 148.9,384.5L149.2,384.5C149.4,384.6 149.4,384.6 149.4,384.9L149.4,389.7C149.4,389.9 149.3,390 149.2,390L148.9,390C148.8,390 148.7,390.1 148.7,390.2C148.7,390.3 148.8,390.3 148.9,390.3L151.3,390.3C151.4,390.3 151.5,390.3 151.5,390.2C151.6,390.1 151.5,390 151.4,390ZM156.3,390L155.9,390C155.7,390 155.7,389.9 155.6,389.7L155.6,384.9C155.6,384.6 155.7,384.6 155.8,384.5L156,384.5C156.1,384.5 156.2,384.5 156.2,384.3C156.2,384.2 156.1,384.2 156,384.2L153.8,384.2C153.7,384.2 153.6,384.2 153.5,384.3C153.5,384.4 153.6,384.5 153.7,384.5L154,384.5C154.2,384.6 154.2,384.6 154.2,384.9L154.2,389.7C154.2,389.9 154.1,390 154,390L153.7,390C153.6,390 153.5,390.1 153.5,390.2C153.5,390.3 153.6,390.3 153.7,390.3L156.1,390.3C156.2,390.3 156.3,390.3 156.3,390.2C156.5,390.1 156.4,390 156.3,390ZM161.3,390L160.9,390C160.7,390 160.7,389.9 160.6,389.7L160.6,384.9C160.6,384.6 160.7,384.6 160.8,384.5L161,384.5C161.1,384.5 161.2,384.5 161.2,384.3C161.2,384.2 161.1,384.2 161,384.2L158.9,384.2C158.8,384.2 158.7,384.2 158.6,384.3C158.6,384.4 158.7,384.5 158.8,384.5L159.1,384.5C159.3,384.6 159.3,384.6 159.3,384.9L159.3,389.7C159.3,389.9 159.2,390 159.1,390L158.8,390C158.7,390 158.6,390.1 158.6,390.2C158.6,390.3 158.7,390.3 158.8,390.3L161.2,390.3C161.3,390.3 161.4,390.3 161.4,390.2C161.5,390.1 161.4,390 161.3,390ZM112.2,351.8L112.2,347.2C112.2,346.3 111.5,345.6 110.6,345.6C109.7,345.6 109,346.3 109,347.2L109,351.8L112.2,351.8ZM120.7,351.8L120.7,347.2C120.7,346.3 120,345.6 119.1,345.6C118.2,345.6 117.5,346.3 117.5,347.2L117.5,351.8L120.7,351.8ZM114.9,258.7C114,258.7 113.3,259.4 113.3,260.3C113.3,261.2 114,261.9 114.9,261.9C115.8,261.9 116.5,261.2 116.5,260.3C116.5,259.4 115.8,258.7 114.9,258.7ZM114,304.6L115.7,304.6L115.7,301L114,301L114,304.6ZM98.3,394.6C97.4,394.6 96.7,395.3 96.7,396.2C96.7,397.1 97.4,397.8 98.3,397.8C99.2,397.8 99.9,397.1 99.9,396.2C99.9,395.3 99.2,394.6 98.3,394.6ZM97.3,304.6L97.3,299.4C97.3,298.2 96.7,297.3 95.8,296.9C94.9,297.3 94.3,298.1 94.3,299.4L94.3,304.6L97.3,304.6ZM97.3,287.8L97.3,284.4C97.3,283.2 96.7,282.3 95.8,281.9C94.9,282.3 94.3,283.2 94.3,284.4L94.3,287.8L97.3,287.8ZM96.6,322.8L96.6,318.4C96.6,317.9 96.2,317.6 95.8,317.6C95.4,317.6 95,318 95,318.4L95,322.8L96.6,322.8ZM96.6,336.1L96.6,331.7C96.6,331.2 96.2,330.9 95.8,330.9C95.4,330.9 95,331.3 95,331.7L95,336.1L96.6,336.1ZM97.1,350.8L97.1,346.9C97.1,346.2 96.5,345.6 95.8,345.6C95.1,345.6 94.5,346.2 94.5,346.9L94.5,350.8L97.1,350.8ZM95.8,240.5C94.9,240.5 94.2,241.2 94.2,242.1C94.2,243 94.9,243.7 95.8,243.7C96.7,243.7 97.4,243 97.4,242.1C97.4,241.2 96.7,240.5 95.8,240.5ZM135.5,304.6L135.5,299.4C135.5,298.2 134.9,297.3 134,296.9C133.1,297.3 132.5,298.1 132.5,299.4L132.5,304.6L135.5,304.6ZM135.5,287.8L135.5,284.4C135.5,283.2 134.9,282.3 134,281.9C133.1,282.3 132.5,283.2 132.5,284.4L132.5,287.8L135.5,287.8ZM134.8,322.8L134.8,318.4C134.8,317.9 134.4,317.6 134,317.6C133.6,317.6 133.2,318 133.2,318.4L133.2,322.8L134.8,322.8ZM134.8,336.1L134.8,331.7C134.8,331.2 134.4,330.9 134,330.9C133.6,330.9 133.2,331.3 133.2,331.7L133.2,336.1L134.8,336.1ZM135.2,350.8L135.2,346.9C135.2,346.2 134.6,345.6 133.9,345.6C133.2,345.6 132.6,346.2 132.6,346.9L132.6,350.8L135.2,350.8ZM133.9,240.5C133,240.5 132.3,241.2 132.3,242.1C132.3,243 133,243.7 133.9,243.7C134.8,243.7 135.5,243 135.5,242.1C135.6,241.2 134.9,240.5 133.9,240.5ZM406.4,289.6C406.4,290.8 406.3,292.2 406.1,293.7L384.5,293.7C384.4,300.2 387.7,303.4 394.1,303.4C397.5,303.4 401.3,302.6 404.3,301.2L405.1,308.2C401.4,309.7 397,310.4 392.6,310.4C381.5,310.4 375.3,304.9 375.3,292.6C375.3,281.9 381.2,274.1 391.7,274.1M391.4,280.6C387.7,280.6 385.1,283.3 384.6,287.6L397.5,287.6C397.6,283.2 395.2,280.6 391.4,280.6ZM472.6,270.3C469.5,270.3 467,267.8 467,264.8C467,261.8 469.5,259.4 472.6,259.4C475.7,259.4 478.2,261.8 478.2,264.8C478.2,267.8 475.7,270.3 472.6,270.3ZM468.1,309.7L468.1,274.8L477.1,274.8L477.1,309.7L468.1,309.7ZM499.9,310.4C492.2,310.4 489.7,307.6 489.7,299.4L489.7,281.7L483.7,281.7L483.7,274.7L489.7,274.7L489.7,264L498.7,261.6L498.7,274.7L507.2,274.7L507.2,281.7L498.7,281.7L498.7,297C498.7,301.5 499.8,302.8 502.8,302.8C504.3,302.8 505.9,302.6 507.2,302.2L507.2,309.4C504.9,310 502.3,310.4 499.9,310.4ZM21,321.1C21,269.2 63,227.2 114.9,227.2C166.8,227.2 208.8,269.2 208.8,321.1C208.8,373 166.8,415 114.9,415C63,415 21,373 21,321.1ZM50.1,256.3C33.5,272.9 23.3,295.8 23.3,321.1C23.3,346.4 33.5,369.3 50.1,385.9C66.7,402.5 89.6,412.7 114.9,412.7C140.2,412.7 163.1,402.5 179.7,385.9C196.3,369.3 206.5,346.4 206.5,321.1C206.5,295.8 196.3,272.9 179.7,256.3C163.1,239.7 140.2,229.5 114.9,229.5C89.6,229.5 66.7,239.7 50.1,256.3ZM116.3,380.1L117.1,380.1L117.1,378.8L115.3,378.8L115.3,381.7L116.4,381.7L116.3,380.1ZM114.9,233.3C66.4,233.3 27.1,272.6 27.1,321.1C27.1,369.6 66.4,408.9 114.9,408.9C163.4,408.9 202.7,369.6 202.7,321.1C202.6,272.6 163.3,233.3 114.9,233.3ZM105.2,395.5L101.2,395.5L101.2,396.8L105.2,396.8L105.2,406.7C85.3,404.5 67.4,395.4 54,382C52.1,380.1 50.2,378 48.5,375.9C48.9,373.8 50.7,372.1 52.9,372.1C55.4,372.1 57.4,374.1 57.4,376.6L57.4,380.9L63.1,380.9L63.1,376.6C63.1,374.1 65.1,372.1 67.6,372.1C70.1,372.1 72.1,374.1 72.1,376.6L72.1,380.9L77.8,380.9L77.8,376.6C77.8,374.1 79.8,372.1 82.3,372.1C84.8,372.1 86.8,374.1 86.8,376.6L86.8,380.9L92.5,380.9L92.5,376.6C92.5,374.1 94.5,372.1 97,372.1C99.5,372.1 101.5,374.1 101.5,376.6L101.5,380.9L105.1,380.9L105.2,395.5ZM121.5,407C119.3,407.2 117.1,407.3 114.9,407.3C112.7,407.3 110.5,407.2 108.3,407.1L106.7,396.9L108.6,396.9C108.1,395.8 107.3,393.8 107,393C106.5,391.7 106.9,390.9 107.7,390.6C108.5,390.3 109.5,390.7 109.7,391.8L110.5,394.9L111.7,394.9L111.7,397.3L108.9,397.3L108.9,398.6L113.1,398.6L113.1,396.9L118.1,396.9L118.1,394.9L119.3,394.9L120.1,391.8C120.4,390.7 121.3,390.3 122.2,390.6C123,390.9 123.4,391.8 122.9,393C122.8,393.3 122.5,393.9 122.3,394.5L121.2,397.2L118.2,397.2L118.2,398.5L122.1,398.5L122.8,396.8L123.2,396.8L121.5,407ZM112.1,378L117.6,378C117.8,378.5 118.3,379.8 118.7,380.5C118.9,381 119.2,381.6 118.9,382.1C118.5,382.8 117.9,382.7 117.6,382.6L117.5,382.6C117.1,383.6 116.1,384.4 115,384.4C113.8,384.4 112.8,383.7 112.5,382.6L112.4,382.6C112,382.6 111.5,382.7 111.1,382.1C110.8,381.5 111,381 111.3,380.5C111.4,379.7 111.9,378.5 112.1,378ZM111.3,372.3L113,374.8L114.8,371.4L116.6,374.8L118.3,372.3L117.6,376.6L112,376.6L111.3,372.3ZM113.4,384.6C113.8,385.7 114.9,386.6 116.2,386.6C117.6,386.6 118.8,385.6 119.1,384.3C120,384.3 120.8,384.6 121.7,385.3C122.5,386 122.8,387.2 123,387.8L107,387.8C107.1,387.2 107.4,386 108.3,385.3C109.9,383.8 111.7,384.3 113.4,384.6ZM120,389.1C119.4,391.4 117.3,393.1 114.8,393.1C112.3,393.1 110.3,391.4 109.6,389.1L120,389.1ZM175.8,382C162.4,395.4 144.5,404.5 124.6,406.7L124.6,396.8L128.2,396.8C135,396.8 139.8,396.2 139.8,396.2C139.8,396.2 134.8,395.4 128.2,395.4L124.6,395.4L124.6,381L129,381L129,376.7C129,374.2 131,372.2 133.5,372.2C136,372.2 138,374.2 138,376.7L138,381L143.7,381L143.7,376.7C143.7,374.2 145.7,372.2 148.2,372.2C150.7,372.2 152.7,374.2 152.7,376.7L152.7,381L158.4,381L158.4,376.7C158.4,374.2 160.4,372.2 162.9,372.2C165.4,372.2 167.4,374.2 167.4,376.7L167.4,381L173.1,381L173.1,376.7C173.1,374.2 175.1,372.2 177.6,372.2C179.6,372.2 181.2,373.5 181.9,375.2C180,377.6 178,379.9 175.8,382ZM182.9,374C181.9,371.9 179.7,370.4 177.3,370.4C173.9,370.4 171.1,373.2 171.1,376.6L171.1,378.6L168.8,378.6L168.8,376.6C168.8,373.2 166,370.4 162.6,370.4C159.2,370.4 156.4,373.2 156.4,376.6L156.4,378.6L154,378.6L154,376.6C154,373.2 151.2,370.4 147.8,370.4C144.4,370.4 141.6,373.2 141.6,376.6L141.6,378.6L139.3,378.6L139.3,376.6C139.3,373.2 136.5,370.4 133.1,370.4C129.7,370.4 126.9,373.2 126.9,376.6L126.9,378.6L124.6,378.6C123.9,373.9 119.9,370.3 115,370.3C110.1,370.3 106.1,373.9 105.4,378.6L103,378.6L103,376.6C103,373.2 100.2,370.4 96.8,370.4C93.4,370.4 90.6,373.2 90.6,376.6L90.6,378.6L88.3,378.6L88.3,376.6C88.3,373.2 85.5,370.4 82.1,370.4C78.7,370.4 75.9,373.2 75.9,376.6L75.9,378.6L73.6,378.6L73.6,376.6C73.6,373.2 70.8,370.4 67.4,370.4C64,370.4 61.2,373.2 61.2,376.6L61.2,378.6L59,378.6L59,376.6C59,373.2 56.2,370.4 52.8,370.4C50.3,370.4 48.2,371.8 47.2,373.9C45.7,371.9 44.2,369.9 42.9,367.8L187.6,367.8C185.9,370 184.4,372.1 182.9,374ZM188.7,365.6L41.1,365.6C40.7,364.9 40.3,364.2 39.8,363.4L189.9,363.4C189.5,364.2 189.1,364.9 188.7,365.6ZM100,254.8L100,255.5C100,255.6 99.9,255.9 99.9,256.1C99.8,256.4 99.5,257 99.1,257.6C98.9,257.8 98.7,258.3 98.4,258.9C98,258.3 97.7,257.9 97.4,257.7C97.1,257.4 96.8,257.1 96.5,256.7C95.9,256 95.9,255.5 95.9,255.5C95.9,255.5 95.9,255.9 95.3,256.7C95,257 94.7,257.4 94.4,257.7C94.2,257.9 93.8,258.4 93.4,259C93.1,258.4 92.8,257.9 92.7,257.7C92.3,257.1 92,256.5 91.9,256.2C91.8,255.9 91.7,255.5 91.7,255.5L91.7,254.9L100,254.9L100,254.8ZM91.6,253.5C91.7,252.4 92,250.4 93,249C93.8,247.9 94.6,247.3 95.2,246.9C95.5,246.7 95.7,246.6 95.8,246.5C96,246.6 96.2,246.7 96.4,246.9C97,247.3 97.8,247.9 98.6,249C99.7,250.4 99.9,252.5 100,253.5L91.6,253.5ZM100.3,258.3C100.5,258.6 100.8,259.1 101.1,259.7C101.5,260.6 101.6,261.5 101.6,262.2L101.6,271.9L99,271.9L99,262.2C99,261.5 99.1,260.6 99.5,259.7C99.8,259 100.1,258.6 100.3,258.3ZM97.7,262.2L97.7,271.9L93.9,271.9L93.9,262.2C93.9,261.6 94,260.7 94.4,259.8C94.9,258.9 95.8,258.3 95.8,258.3C95.8,258.3 96.7,258.9 97.1,259.8C97.6,260.8 97.7,261.6 97.7,262.2ZM92.1,259.7C92.5,260.6 92.5,261.5 92.5,262.2L92.5,271.9L90,271.9L90,262.2C90,261.5 90.1,260.7 90.5,259.7C90.8,259.1 91,258.6 91.3,258.3C91.5,258.7 91.8,259.1 92.1,259.7ZM103.5,273.5L103.5,276.6L88.1,276.6L88.1,273.5L103.5,273.5ZM103.5,277.9L103.5,290.1L99.8,290.1L99.8,284.6C99.8,282.8 99.1,281.2 98,280.2C97.4,279.6 96.7,279.2 95.9,278.9L95.7,278.9C94.9,279.2 94.2,279.6 93.6,280.2C92.5,281.3 91.8,282.8 91.8,284.6L91.8,290.1L88.1,290.1L88.1,277.9L103.5,277.9ZM98.4,284.7L98.4,290.2L93.1,290.2L93.1,284.7C93.1,282.6 94.2,281.1 95.7,280.4C97.3,281.1 98.4,282.5 98.4,284.7ZM103.5,291.5L103.5,307.1L100,307.1L100,299.3C100,297.5 99.3,295.9 98.2,294.8C97.6,294.2 96.9,293.8 96.1,293.5L95.8,293.4C95.8,293.4 95.6,293.5 95.5,293.5C94.7,293.8 94,294.2 93.3,294.8C92.2,295.9 91.5,297.5 91.5,299.3L91.5,307.1L88.1,307.1L88.1,291.5L103.5,291.5ZM98.7,299.3L98.7,307.1L92.8,307.1L92.8,299.3C92.8,297.8 93.4,296.6 94.2,295.8C94.6,295.4 95.1,295.1 95.7,294.9C96.3,295.1 96.8,295.4 97.2,295.8C98.2,296.6 98.7,297.8 98.7,299.3ZM103.5,308.4L103.5,326.9L88.1,326.9L88.1,308.4L103.5,308.4ZM103.5,328.3L103.5,340.4L88.1,340.4L88.1,328.3L103.5,328.3ZM103.5,341.7L103.5,362.2L88.1,362.2L88.1,341.7L103.5,341.7ZM117,291.6L117,297.1L114.9,295L112.8,297.1L112.8,291.6L117,291.6ZM112.8,290.1L114.3,283.5L114.9,272.4L115.3,283.4L116.8,290L112.8,290L112.8,290.1ZM114.9,297.3L124.7,307.1L105.1,307.1L114.9,297.3ZM124.7,308.4L124.7,315.9L105,315.9L105,308.4L124.7,308.4ZM124.7,318.2L124.7,326.9L118.6,326.9L118.6,324.7C118.6,322.7 117,321 114.9,321C112.9,321 111.2,322.6 111.2,324.7L111.2,326.9L105,326.9L105,318.2L124.7,318.2ZM111.2,328.3L111.2,336.1L118.5,336.1L118.5,328.3L124.6,328.3L124.6,340.4L105,340.4L105,328.3L111.2,328.3ZM124.7,341.7L124.7,362.2L105,362.2L105,341.7L124.7,341.7ZM138.2,254.8L138.2,255.5C138.2,255.6 138.1,255.9 138.1,256.1C138,256.4 137.7,257 137.3,257.6C137.1,257.8 136.9,258.3 136.6,258.9C136.2,258.3 135.9,257.9 135.6,257.7C135.3,257.4 135,257.1 134.7,256.7C134.1,256 134.1,255.5 134.1,255.5C134.1,255.5 134.1,255.9 133.5,256.7C133.2,257 132.9,257.4 132.6,257.7C132.4,257.9 132,258.4 131.6,259C131.3,258.4 131,257.9 130.9,257.7C130.5,257.1 130.2,256.5 130.1,256.2C130,255.9 129.9,255.5 129.9,255.5L129.9,255L138.2,255L138.2,254.8ZM129.7,253.5C129.8,252.4 130.1,250.4 131.1,249C131.9,247.9 132.7,247.3 133.3,246.9C133.6,246.7 133.8,246.6 133.9,246.5C134.1,246.6 134.3,246.7 134.5,246.9C135.1,247.3 135.9,247.9 136.7,249C137.8,250.4 138,252.5 138.1,253.5L129.7,253.5ZM138.5,258.3C138.7,258.6 139,259.1 139.3,259.7C139.7,260.6 139.8,261.5 139.8,262.2L139.8,271.9L137.3,271.9L137.3,262.2C137.3,261.5 137.4,260.6 137.8,259.7C138,259 138.2,258.6 138.5,258.3ZM135.9,262.2L135.9,271.9L132.1,271.9L132.1,262.2C132.1,261.6 132.2,260.7 132.6,259.8C133.1,258.9 134,258.3 134,258.3C134,258.3 134.9,258.9 135.3,259.8C135.8,260.8 135.8,261.6 135.9,262.2ZM130.2,259.7C130.6,260.6 130.6,261.5 130.6,262.2L130.6,271.9L128.1,271.9L128.1,262.2C128.1,261.5 128.2,260.7 128.6,259.7C128.9,259.1 129.1,258.6 129.4,258.3C129.7,258.7 130,259.1 130.2,259.7ZM141.6,273.5L141.6,276.6L126.2,276.6L126.2,273.5L141.6,273.5ZM141.6,277.9L141.6,290.1L137.9,290.1L137.9,284.6C137.9,282.8 137.2,281.2 136.1,280.2C135.5,279.6 134.8,279.2 134,278.9L133.8,278.9C133,279.2 132.3,279.6 131.7,280.2C130.6,281.3 129.9,282.8 129.9,284.6L129.9,290.1L126.2,290.1L126.2,277.9L141.6,277.9ZM136.6,284.7L136.6,290.2L131.3,290.2L131.3,284.7C131.3,282.6 132.4,281.1 133.9,280.4C135.5,281.1 136.6,282.5 136.6,284.7ZM141.6,291.5L141.6,307.1L138.2,307.1L138.2,299.3C138.2,297.5 137.5,295.9 136.4,294.8C135.8,294.2 135.1,293.8 134.3,293.5L134,293.4C134,293.4 133.8,293.5 133.7,293.5C132.9,293.8 132.2,294.2 131.5,294.8C130.4,295.9 129.7,297.5 129.7,299.3L129.7,307.1L126.3,307.1L126.3,291.5L141.6,291.5ZM136.9,299.3L136.9,307.1L131,307.1L131,299.3C131,297.8 131.6,296.6 132.4,295.8C132.8,295.4 133.3,295.1 133.9,294.9C134.5,295.1 135,295.4 135.4,295.8C136.3,296.6 136.9,297.8 136.9,299.3ZM141.6,308.4L141.6,326.9L126.2,326.9L126.2,308.4L141.6,308.4ZM141.6,328.3L141.6,340.4L126.2,340.4L126.2,328.3L141.6,328.3ZM141.6,341.7L141.6,362.2L126.2,362.2L126.2,341.7L141.6,341.7ZM144,362.1L144,271.8L142.1,271.8L142.1,261.9C142.1,260.7 141.9,259.9 141.4,258.6C141.3,258.3 141.1,257.9 140.8,257.6L140.8,254C140.8,254 140.8,251.2 139.6,249C138.3,246.7 135.9,245.4 134.7,244.9C134.4,244.8 134.2,244.7 134.2,244.7L134,244.6L133.8,244.7C133.7,244.7 131.7,245.4 129.9,247.9C128.2,250.2 128.2,253.2 128.1,254L128.1,257.5C127.9,257.8 127.6,258.3 127.2,259.1C126.7,260.4 126.6,261.5 126.6,262.2L126.6,271.8L124.7,271.8L124.7,304.7L119.4,299.4L119.4,290L117.6,283.9L115,263.1L113,283L111.2,289.9L111.2,298.6L105.9,303.9L105.9,271.7L104,271.7L104,261.8C104,260.6 103.8,259.8 103.3,258.5C103.2,258.2 103,257.8 102.7,257.5L102.7,254C102.7,254 102.7,251.2 101.5,249C100.2,246.7 97.8,245.4 96.6,244.9C96.3,244.8 96.1,244.7 96.1,244.7L95.9,244.6L95.7,244.7C95.6,244.7 93.6,245.4 91.8,247.9C90.1,250.2 90.1,253.2 90,254L90,257.5C89.8,257.8 89.5,258.3 89.1,259.1C88.6,260.4 88.5,261.5 88.5,262.2L88.5,271.8L86.6,271.8L86.6,362L39.1,362C32.5,349.8 28.7,335.8 28.7,320.9C28.7,297.1 38.4,275.5 54,259.9C69.6,244.3 91.1,234.6 115,234.6C138.9,234.6 160.4,244.3 176,259.9C191.6,275.5 201.3,297.1 201.3,320.9C201.3,335.8 197.5,349.8 190.9,362L144,362.1Z" style="fill-rule:nonzero;"/>
    </g>
</svg>
